<svg width="60" height="60" viewBox="0 0 60 60" fill="none" xmlns="http://www.w3.org/2000/svg">
<circle cx="30" cy="30" r="30" fill="#EFF3FA"/>
<path d="M19.4531 20.4375C20.0356 20.4375 20.5078 19.9653 20.5078 19.3828C20.5078 16.475 22.8735 14.1094 25.7812 14.1094C28.689 14.1094 31.0547 16.475 31.0547 19.3828C31.0547 19.9653 31.5269 20.4375 32.1094 20.4375C32.6918 20.4375 33.1641 19.9653 33.1641 19.3828C33.1641 15.3119 29.8521 12 25.7812 12C21.7104 12 18.3984 15.3119 18.3984 19.3828C18.3984 19.9653 18.8707 20.4375 19.4531 20.4375Z" fill="#FF6768"/>
<path d="M23.2002 47.8887C23.3467 47.9619 23.5081 48 23.6719 48H38.4375C38.7173 48 38.9854 47.8889 39.1833 47.691C40.7428 46.1316 41.6016 44.0582 41.6016 41.8529V32.1797C41.6016 30.435 40.1822 29.0156 38.4375 29.0156C38.0257 29.0156 37.6325 29.0956 37.2713 29.2393C36.9053 27.8966 35.6758 26.9062 34.2188 26.9062C33.8069 26.9062 33.4137 26.9862 33.0525 27.1299C32.6866 25.7872 31.4571 24.7969 30 24.7969C29.6303 24.7969 29.2754 24.8612 28.9453 24.9783V19.3828C28.9453 17.6381 27.5259 16.2188 25.7812 16.2188C24.0366 16.2188 22.6172 17.6381 22.6172 19.3828V31.125H21.5625C19.8178 31.125 18.3984 32.5444 18.3984 34.2891V40.1192C18.3984 41.7336 18.847 43.3128 19.6958 44.686C20.5444 46.0592 21.7563 47.1667 23.2002 47.8887ZM20.5078 34.2891C20.5078 33.7075 20.9809 33.2344 21.5625 33.2344H22.6172V37.7685C22.6172 38.351 23.0894 38.8232 23.6719 38.8232C24.2543 38.8232 24.7266 38.351 24.7266 37.7685V19.3828C24.7266 18.8013 25.1997 18.3281 25.7812 18.3281C26.3628 18.3281 26.8359 18.8013 26.8359 19.3828V34.2891C26.8359 34.8715 27.3082 35.3438 27.8906 35.3438C28.4731 35.3438 28.9453 34.8715 28.9453 34.2891V27.9609C28.9453 27.3794 29.4184 26.9062 30 26.9062C30.5816 26.9062 31.0547 27.3794 31.0547 27.9609V34.2891C31.0547 34.8715 31.5269 35.3438 32.1094 35.3438C32.6918 35.3438 33.1641 34.8715 33.1641 34.2891V30.0703C33.1641 29.4888 33.6372 29.0156 34.2188 29.0156C34.8003 29.0156 35.2734 29.4888 35.2734 30.0703V34.2891C35.2734 34.8715 35.7457 35.3438 36.3281 35.3438C36.9106 35.3438 37.3828 34.8715 37.3828 34.2891V32.1797C37.3828 31.5981 37.8559 31.125 38.4375 31.125C39.0191 31.125 39.4922 31.5981 39.4922 32.1797V41.8529C39.4922 43.3531 38.9583 44.7714 37.9805 45.8906H23.9304C21.813 44.7359 20.5078 42.5462 20.5078 40.1192V34.2891Z" fill="#567DD0"/>
</svg>
