<svg width="60" height="60" viewBox="0 0 60 60" fill="none" xmlns="http://www.w3.org/2000/svg">
<circle cx="30" cy="30" r="30" fill="#EFF3FA"/>
<path d="M29.9649 22.9168C31.7471 22.9168 33.1973 21.4669 33.1973 19.6843C33.1973 17.9021 31.7471 16.4521 29.9649 16.4521C28.1826 16.4521 26.7324 17.9021 26.7324 19.6843C26.7324 21.4669 28.1826 22.9168 29.9649 22.9168ZM29.9649 18.5615C30.5842 18.5615 31.088 19.0652 31.088 19.6843C31.088 20.3037 30.584 20.8074 29.9649 20.8074C29.3458 20.8074 28.8418 20.3037 28.8418 19.6843C28.8418 19.0652 29.3455 18.5615 29.9649 18.5615Z" fill="#FF6768"/>
<path d="M48 26.2471V20.2952L30 12L12 20.2952V26.2471H15.5535V36.8956H13.6875V40.921H12V47.9346H48V40.921H47.0859V36.8956H44.3762V26.2471H48ZM14.1094 24.1377V21.6457L30 14.3225L45.8906 21.6457V24.1374H14.1094V24.1377ZM26.5385 36.8956H22.4062V26.2471H26.5385V36.8956ZM28.6479 26.2471H31.2818V36.8956H28.6479V26.2471ZM33.3912 26.2471H37.5234V36.8956H33.3912V26.2471ZM17.6629 26.2471H20.2969V36.8956H17.6629V26.2471ZM45.8906 45.8253H14.1094V43.0303H45.8906V45.8253ZM44.9766 39.0049V40.921H15.7969V39.0049H44.9766ZM42.2668 36.8956H39.6328V26.2471H42.2668V36.8956Z" fill="#567DD0"/>
</svg>
