<svg width="60" height="60" viewBox="0 0 60 60" fill="none" xmlns="http://www.w3.org/2000/svg">
<circle cx="30" cy="30" r="30" fill="#EFF3FA"/>
<path d="M41.25 42.5H38.75V37.6763C38.75 35.5854 37.7057 33.6337 35.9665 32.4758L32.2533 30L35.9672 27.5238C37.7057 26.3663 38.75 24.4146 38.75 22.3238V17.5H41.25C41.9403 17.5 42.5 16.9404 42.5 16.25C42.5 15.5596 41.9403 15 41.25 15H37.5H22.5H18.75C18.0596 15 17.5 15.5596 17.5 16.25C17.5 16.9403 18.0596 17.5 18.75 17.5H21.25V22.3237C21.25 24.4146 22.2943 26.3663 24.0335 27.5242L27.7467 30L24.0328 32.4762C22.2943 33.6337 21.25 35.5854 21.25 37.6763V42.5H18.75C18.0596 42.5 17.5 43.0596 17.5 43.75C17.5 44.4403 18.0596 45 18.75 45H22.5H37.5H41.25C41.9403 45 42.5 44.4404 42.5 43.75C42.5 43.0597 41.9403 42.5 41.25 42.5ZM23.75 22.3238V17.5H36.2499V22.3238C36.2499 23.5786 35.6236 24.7491 34.581 25.4433L30 28.4977L25.4196 25.4438C24.3763 24.7491 23.75 23.5786 23.75 22.3238ZM23.75 42.5V37.6763C23.75 36.4214 24.3763 35.2509 25.4189 34.5567L30 31.5023L34.5803 34.5563C35.6237 35.2509 36.25 36.4214 36.25 37.6763V42.5H23.75Z" fill="#567DD0"/>
<path d="M31.0401 26.1864C31.423 25.612 31.2676 24.8359 30.6933 24.453L27.5 22.3246C27.5 22.3245 27.5 21.2494 27.5 21.2494C27.5 20.559 26.9403 19.9994 26.25 19.9994C25.5596 19.9994 25 20.559 25 21.2494V22.3244C25 23.1603 25.4168 23.9388 26.1112 24.4033L29.3068 26.5332C29.8811 26.9161 30.6572 26.7609 31.0401 26.1864Z" fill="#FF6768"/>
<path d="M33.889 35.5967L30.6934 33.4667C30.1189 33.0838 29.3429 33.2391 28.96 33.8135C28.5771 34.388 28.7324 35.1641 29.3068 35.5469L32.5001 37.6754C32.5001 37.6755 32.5001 38.7506 32.5001 38.7506C32.5001 39.4409 33.0598 40.0006 33.7501 40.0006C34.4405 40.0006 35.0001 39.4409 35.0001 38.7506V37.6756C35.0001 36.8397 34.5833 36.0613 33.889 35.5967Z" fill="#FF6768"/>
</svg>
