<svg width="60" height="60" viewBox="0 0 60 60" fill="none" xmlns="http://www.w3.org/2000/svg">
<circle cx="30" cy="30" r="30" fill="#EFF3FA"/>
<g clip-path="url(#clip0)">
<path d="M33.8672 26.9492C34.5145 26.9492 35.0391 27.4738 35.0391 28.1211C35.0391 28.7684 34.5145 29.293 33.8672 29.293H26.8359C26.1887 29.293 25.6641 28.7684 25.6641 28.1211C25.6641 27.4738 26.1887 26.9492 26.8359 26.9492H33.8672ZM37.3828 24.6055H26.8359C26.1887 24.6055 25.6641 24.0809 25.6641 23.4336C25.6641 22.7863 26.1887 22.2617 26.8359 22.2617H37.3828C38.0301 22.2617 38.5547 22.7863 38.5547 23.4336C38.5547 24.0809 38.0301 24.6055 37.3828 24.6055Z" fill="#FF6768"/>
<path d="M42.4528 31.9633C42.2105 31.3632 41.5272 31.0734 40.9271 31.3161C40.3272 31.5587 40.0375 32.2417 40.2801 32.8418L41.66 36.2558L37.561 34.449C37.2643 34.3181 36.9267 34.316 36.6285 34.4433C35.2275 35.0409 33.7267 35.3439 32.168 35.3439C25.8942 35.3439 21.6798 30.4319 21.6798 25.8439C21.6798 20.6055 26.3849 16.3438 32.168 16.3438C37.9512 16.3438 42.6563 20.6055 42.6563 25.8439C42.6563 26.2525 42.6183 26.7419 42.552 27.1863C42.4565 27.8265 42.898 28.423 43.538 28.5184C44.1782 28.6139 44.7746 28.1724 44.8701 27.5322C44.9538 26.9703 45.0001 26.3706 45.0001 25.8439C45.0001 22.6604 43.652 19.6735 41.2041 17.4332C38.7852 15.2193 35.5763 14 32.168 14C28.7598 14 25.5508 15.2193 23.132 17.4332C20.9446 19.4353 19.6363 22.0338 19.3825 24.8355C16.6311 26.6576 15.0001 29.5772 15.0001 32.7221C15.0001 34.6866 15.619 36.5508 16.7973 38.1548L15.0854 42.3889C14.9067 42.8311 15.0138 43.3374 15.3562 43.6695C15.5794 43.8858 15.8737 44 16.1722 44C16.3317 44 16.4926 43.9675 16.6446 43.9004L21.58 41.7249C22.8214 42.187 24.1338 42.4209 25.4884 42.4209C25.5177 42.4209 25.5465 42.4187 25.5751 42.4166C27.5343 42.4017 29.4391 41.8863 31.0886 40.922C32.5663 40.0582 33.7819 38.8712 34.634 37.4698C35.4658 37.3203 36.279 37.0946 37.0684 36.793L43.3556 39.5645C43.5075 39.6316 43.6682 39.6641 43.828 39.6641C44.1264 39.6641 44.4205 39.5499 44.6437 39.3336C44.9863 39.0014 45.0932 38.4952 44.9145 38.053L42.4528 31.9633ZM25.4884 40.0742C25.4723 40.0742 25.4568 40.0758 25.441 40.0765C24.2444 40.0706 23.0926 39.8353 22.0169 39.3764C21.7187 39.2491 21.3811 39.2512 21.0844 39.3819L18.3401 40.5917L19.2255 38.4018C19.3891 37.9969 19.314 37.5348 19.0307 37.2022C17.9272 35.9077 17.3438 34.3584 17.3438 32.7221C17.3438 30.8494 18.1316 29.0751 19.51 27.7297C19.9391 30.0689 21.1499 32.3067 22.9766 34.0647C25.2494 36.2521 28.256 37.5194 31.5022 37.6721C29.9781 39.1722 27.7971 40.0742 25.4884 40.0742Z" fill="#567DD0"/>
</g>
<defs>
<clipPath id="clip0">
<rect width="30" height="30" fill="white" transform="translate(15 14)"/>
</clipPath>
</defs>
</svg>
