<svg width="24" height="24" viewBox="0 0 24 24" fill="none" xmlns="http://www.w3.org/2000/svg">
<g clip-path="url(#clip0)">
<path d="M5.64478 5.16638H9.96182V6.57835H5.64478V5.16638Z" fill="#FF6768"/>
<path d="M5.64478 8.27057H9.96182V9.68254H5.64478V8.27057Z" fill="#FF6768"/>
<path d="M5.64478 11.2554H9.96182V12.6674H5.64478V11.2554Z" fill="#FF6768"/>
<path d="M14.1299 5.21985H18.4469V6.63181H14.1299V5.21985Z" fill="#FF6768"/>
<path d="M14.1299 8.27057H18.4469V9.68254H14.1299V8.27057Z" fill="#FF6768"/>
<path d="M14.1299 11.2554H18.4469V12.6674H14.1299V11.2554Z" fill="#FF6768"/>
<path d="M24 2.04016H14.3915C13.5584 2.04016 12.7867 2.37236 12.2189 2.9756C12.158 3.04019 12.1007 3.10793 12.0458 3.17749C11.991 3.10788 11.9337 3.04019 11.8728 2.9756C11.3049 2.37236 10.5333 2.04016 9.70022 2.04016H0V18.5111H14.2643V21.9379L16.3106 20.9555L18.3127 21.9598V18.5111H24V2.04016ZM14.3915 3.45218H19.8251V14.3844H14.0841C13.601 14.3844 13.1466 14.5099 12.7518 14.73V5.30289C12.7518 4.23049 13.4414 3.45218 14.3915 3.45218ZM4.26656 3.45218H9.70022C10.6503 3.45218 11.3398 4.23053 11.3398 5.30289V14.7301C10.9451 14.51 10.4907 14.3844 10.0076 14.3844H4.26656V3.45218ZM1.41197 3.45218H2.85459V15.7964H10.0076C10.7323 15.7964 11.3233 16.3782 11.3391 17.0992H1.41197V3.45218ZM12.7526 17.0991C12.7684 16.3781 13.3594 15.7964 14.0841 15.7964H14.2643V17.0992H12.7526V17.0991ZM16.3242 19.3826L15.6763 19.6937V15.7964H16.9006V19.6718L16.3242 19.3826ZM22.588 17.0991H18.3127V15.7964H21.2371V3.45218H22.588V17.0991Z" fill="#567DD0"/>
</g>
<defs>
<clipPath id="clip0">
<rect width="24" height="24" fill="white"/>
</clipPath>
</defs>
</svg>
