<svg width="26" height="26" viewBox="0 0 26 26" fill="none" xmlns="http://www.w3.org/2000/svg">
<path d="M26 4.4491V2.92566H0V4.4491H6.30993V14.5033H19.6901V4.4491H22.4975V17.3887C21.6818 17.6973 21.1 18.4861 21.1 19.4086C21.1 20.8501 23.2661 23.0743 23.2661 23.0743C23.2661 23.0743 24.2032 22.1038 24.5834 21.5567C25.1373 20.7595 25.4182 20.0368 25.4182 19.4087C25.4182 18.4862 24.8365 17.6974 24.0208 17.3887V4.4491H26ZM7.83336 12.9798V11.3697H18.1666V12.9798H7.83336ZM18.1666 9.84628H7.83336V4.4491H18.1666V9.84628ZM23.2551 20.7988C22.9306 20.3533 22.6235 19.811 22.6235 19.4086C22.6235 19.0581 22.9086 18.7729 23.2592 18.7729C23.6097 18.7729 23.8949 19.0581 23.8949 19.4086C23.8949 19.7784 23.5979 20.3234 23.2551 20.7988Z" fill="#567DD0"/>
<line x1="7.80005" y1="10.6" x2="18.2" y2="10.6" stroke="#FF6768" stroke-width="1.6"/>
</svg>
