<svg width="22" height="22" viewBox="0 0 22 22" fill="none" xmlns="http://www.w3.org/2000/svg">
<path d="M21.3125 10.3984H16.8008V3.30859C16.8008 2.95264 16.5122 2.66406 16.1562 2.66406H15.9414V0.644531C15.9414 0.288578 15.6528 0 15.2969 0H6.70312C6.34717 0 6.05859 0.288578 6.05859 0.644531V2.66406H5.84375C5.4878 2.66406 5.19922 2.95264 5.19922 3.30859V10.3984H0.6875C0.331547 10.3984 0.0429688 10.687 0.0429688 11.043V21.3555C0.0429688 21.7114 0.331547 22 0.6875 22H21.3125C21.6685 22 21.957 21.7114 21.957 21.3555V11.043C21.957 10.687 21.6685 10.3984 21.3125 10.3984ZM7.34766 1.28906H14.6523V2.66406H7.34766V1.28906ZM1.33203 11.6875H5.19922V20.7109H1.33203V11.6875ZM6.48828 11.043V3.95312H6.70312H15.2969H15.5117V11.043V20.7109H14.2227V17.4883C14.2227 17.1323 13.9341 16.8438 13.5781 16.8438H11H8.42188C8.06592 16.8438 7.77734 17.1323 7.77734 17.4883V20.7109H6.48828V11.043ZM9.06641 18.1328H10.3555V20.7109H9.06641V18.1328ZM11.6445 20.7109V18.1328H12.9336V20.7109H11.6445ZM20.668 20.7109H16.8008V11.6875H20.668V20.7109Z" fill="#567DD0"/>
<path d="M13.5781 15.5547C13.9341 15.5547 14.2227 15.2661 14.2227 14.9102V13.6211C14.2227 13.2651 13.9341 12.9766 13.5781 12.9766C13.2222 12.9766 12.9336 13.2651 12.9336 13.6211V14.9102C12.9336 15.2661 13.2222 15.5547 13.5781 15.5547Z" fill="#FF6768"/>
<path d="M11 15.5547C11.356 15.5547 11.6445 15.2661 11.6445 14.9102V13.6211C11.6445 13.2651 11.356 12.9766 11 12.9766C10.644 12.9766 10.3555 13.2651 10.3555 13.6211V14.9102C10.3555 15.2661 10.644 15.5547 11 15.5547Z" fill="#FF6768"/>
<path d="M8.42188 15.5547C8.77783 15.5547 9.06641 15.2661 9.06641 14.9102V13.6211C9.06641 13.2651 8.77783 12.9766 8.42188 12.9766C8.06592 12.9766 7.77734 13.2651 7.77734 13.6211V14.9102C7.77734 15.2661 8.06592 15.5547 8.42188 15.5547Z" fill="#FF6768"/>
<path d="M13.5781 11.6875C13.9341 11.6875 14.2227 11.3989 14.2227 11.043V9.75391C14.2227 9.39795 13.9341 9.10938 13.5781 9.10938C13.2222 9.10938 12.9336 9.39795 12.9336 9.75391V11.043C12.9336 11.3989 13.2222 11.6875 13.5781 11.6875Z" fill="#FF6768"/>
<path d="M18.7344 15.5547C19.0903 15.5547 19.3789 15.2661 19.3789 14.9102V13.6211C19.3789 13.2651 19.0903 12.9766 18.7344 12.9766C18.3784 12.9766 18.0898 13.2651 18.0898 13.6211V14.9102C18.0898 15.2661 18.3784 15.5547 18.7344 15.5547Z" fill="#FF6768"/>
<path d="M18.7344 19.4219C19.0903 19.4219 19.3789 19.1333 19.3789 18.7773V17.4883C19.3789 17.1323 19.0903 16.8438 18.7344 16.8438C18.3784 16.8438 18.0898 17.1323 18.0898 17.4883V18.7773C18.0898 19.1333 18.3784 19.4219 18.7344 19.4219Z" fill="#FF6768"/>
<path d="M3.26562 12.9766C2.90967 12.9766 2.62109 13.2651 2.62109 13.6211V14.9102C2.62109 15.2661 2.90967 15.5547 3.26562 15.5547C3.62158 15.5547 3.91016 15.2661 3.91016 14.9102V13.6211C3.91016 13.2651 3.62158 12.9766 3.26562 12.9766Z" fill="#FF6768"/>
<path d="M3.26562 16.8438C2.90967 16.8438 2.62109 17.1323 2.62109 17.4883V18.7773C2.62109 19.1333 2.90967 19.4219 3.26562 19.4219C3.62158 19.4219 3.91016 19.1333 3.91016 18.7773V17.4883C3.91016 17.1323 3.62158 16.8438 3.26562 16.8438Z" fill="#FF6768"/>
<path d="M11 11.6875C11.356 11.6875 11.6445 11.3989 11.6445 11.043V9.75391C11.6445 9.39795 11.356 9.10938 11 9.10938C10.644 9.10938 10.3555 9.39795 10.3555 9.75391V11.043C10.3555 11.3989 10.644 11.6875 11 11.6875Z" fill="#FF6768"/>
<path d="M8.42188 11.6875C8.77783 11.6875 9.06641 11.3989 9.06641 11.043V9.75391C9.06641 9.39795 8.77783 9.10938 8.42188 9.10938C8.06592 9.10938 7.77734 9.39795 7.77734 9.75391V11.043C7.77734 11.3989 8.06592 11.6875 8.42188 11.6875Z" fill="#FF6768"/>
<path d="M13.5781 7.82031C13.9341 7.82031 14.2227 7.53173 14.2227 7.17578V5.88672C14.2227 5.53077 13.9341 5.24219 13.5781 5.24219C13.2222 5.24219 12.9336 5.53077 12.9336 5.88672V7.17578C12.9336 7.53173 13.2222 7.82031 13.5781 7.82031Z" fill="#FF6768"/>
<path d="M11 7.82031C11.356 7.82031 11.6445 7.53173 11.6445 7.17578V5.88672C11.6445 5.53077 11.356 5.24219 11 5.24219C10.644 5.24219 10.3555 5.53077 10.3555 5.88672V7.17578C10.3555 7.53173 10.644 7.82031 11 7.82031Z" fill="#FF6768"/>
<path d="M8.42188 7.82031C8.77783 7.82031 9.06641 7.53173 9.06641 7.17578V5.88672C9.06641 5.53077 8.77783 5.24219 8.42188 5.24219C8.06592 5.24219 7.77734 5.53077 7.77734 5.88672V7.17578C7.77734 7.53173 8.06592 7.82031 8.42188 7.82031Z" fill="#FF6768"/>
</svg>
