<svg width="30" height="30" viewBox="0 0 30 30" fill="none" xmlns="http://www.w3.org/2000/svg">
<circle cx="15" cy="15" r="15" fill="#EFF3FA"/>
<path d="M22.5 5H7.5C6.12122 5 5 6.12122 5 7.5V22.4268C5 23.8454 6.15458 25 7.57324 25H22.2917C23.785 25 25 23.785 25 22.2917V7.5C25 6.12122 23.8788 5 22.5 5ZM23.3333 22.2917C23.3333 22.8658 22.8662 23.3333 22.2917 23.3333H7.57324C7.07336 23.3333 6.66667 22.9266 6.66667 22.4268V7.5C6.66667 7.04041 7.04041 6.66667 7.5 6.66667H22.5C22.9596 6.66667 23.3333 7.04041 23.3333 7.5V22.2917Z" fill="#567DD0"/>
<path d="M20.834 9.1665H9.16732C8.70732 9.1665 8.33398 9.53984 8.33398 9.99984C8.33398 10.4598 8.70732 10.8332 9.16732 10.8332H20.834C21.294 10.8332 21.6673 10.4598 21.6673 9.99984C21.6673 9.53984 21.294 9.1665 20.834 9.1665Z" fill="#567DD0"/>
<path d="M10.834 13.3438H9.16732C8.70732 13.3438 8.33398 13.7171 8.33398 14.1771C8.33398 14.6371 8.70732 15.0104 9.16732 15.0104H10.834C11.294 15.0104 11.6673 14.6371 11.6673 14.1771C11.6673 13.7171 11.294 13.3438 10.834 13.3438Z" fill="#567DD0"/>
<path d="M15.834 13.3438H14.1673C13.7073 13.3438 13.334 13.7171 13.334 14.1771C13.334 14.6371 13.7073 15.0104 14.1673 15.0104H15.834C16.294 15.0104 16.6673 14.6371 16.6673 14.1771C16.6673 13.7171 16.294 13.3438 15.834 13.3438Z" fill="#567DD0"/>
<path d="M10.834 16.6665H9.16732C8.70732 16.6665 8.33398 17.0398 8.33398 17.4998C8.33398 17.9598 8.70732 18.3332 9.16732 18.3332H10.834C11.294 18.3332 11.6673 17.9598 11.6673 17.4998C11.6673 17.0398 11.294 16.6665 10.834 16.6665Z" fill="#567DD0"/>
<path d="M15.834 16.6665H14.1673C13.7073 16.6665 13.334 17.0398 13.334 17.4998C13.334 17.9598 13.7073 18.3332 14.1673 18.3332H15.834C16.294 18.3332 16.6673 17.9598 16.6673 17.4998C16.6673 17.0398 16.294 16.6665 15.834 16.6665Z" fill="#567DD0"/>
<path d="M10.834 20H9.16732C8.70732 20 8.33398 20.3733 8.33398 20.8333C8.33398 21.2933 8.70732 21.6667 9.16732 21.6667H10.834C11.294 21.6667 11.6673 21.2933 11.6673 20.8333C11.6673 20.3733 11.294 20 10.834 20Z" fill="#567DD0"/>
<path d="M20.834 13.3438H19.1673C18.7073 13.3438 18.334 13.7171 18.334 14.1771C18.334 14.6371 18.7073 15.0104 19.1673 15.0104H20.834C21.294 15.0104 21.6673 14.6371 21.6673 14.1771C21.6673 13.7171 21.294 13.3438 20.834 13.3438Z" fill="#567DD0"/>
<path d="M20.834 16.6665H19.1673C18.7073 16.6665 18.334 17.0398 18.334 17.4998C18.334 17.9598 18.7073 18.3332 19.1673 18.3332H20.834C21.294 18.3332 21.6673 17.9598 21.6673 17.4998C21.6673 17.0398 21.294 16.6665 20.834 16.6665Z" fill="#567DD0"/>
<path d="M20.834 20H19.1673C18.7073 20 18.334 20.3733 18.334 20.8333C18.334 21.2933 18.7073 21.6667 19.1673 21.6667H20.834C21.294 21.6667 21.6673 21.2933 21.6673 20.8333C21.6673 20.3733 21.294 20 20.834 20Z" fill="#567DD0"/>
<path d="M15.834 20H14.1673C13.7073 20 13.334 20.3733 13.334 20.8333C13.334 21.2933 13.7073 21.6667 14.1673 21.6667H15.834C16.294 21.6667 16.6673 21.2933 16.6673 20.8333C16.6673 20.3733 16.294 20 15.834 20Z" fill="#567DD0"/>
</svg>
