<svg width="30" height="32" viewBox="0 0 30 32" fill="none" xmlns="http://www.w3.org/2000/svg">
<circle cx="15" cy="15" r="15" fill="#EFF3FA"/>
<g clip-path="url(#clip0)">
<path d="M25.5938 23.6357V13.9809L26.543 13.6264C26.8173 13.5241 26.9995 13.2621 27 12.9691C27.0006 12.6761 26.8193 12.4136 26.5454 12.3101L15.2485 8.04448C15.0883 7.98387 14.9118 7.98387 14.7517 8.04448L3.45484 12.3101C3.18054 12.4136 2.99945 12.6761 3 12.9691C3.00055 13.2621 3.18274 13.5241 3.45722 13.6264L7.26563 15.0488V20.1749C7.26563 20.4623 7.44068 20.7209 7.70765 20.8276C10.0373 21.7596 12.4909 22.232 15 22.232C17.5091 22.232 19.9627 21.7596 22.2924 20.8276C22.5594 20.7209 22.7344 20.4623 22.7344 20.1749V15.0488L24.1875 14.5061V23.6357C23.3692 23.9259 22.7813 24.7074 22.7813 25.6241C22.7813 26.1639 22.9854 26.6568 23.3202 27.0303C22.9854 27.4039 22.7813 27.8968 22.7813 28.4366V31.2959C22.7813 31.6843 23.096 31.9991 23.4844 31.9991H26.2969C26.6853 31.9991 27 31.6843 27 31.2959V28.4366C27 27.8968 26.7959 27.4039 26.4612 27.0303C26.7961 26.6568 27 26.1639 27 25.6241C27 24.7074 26.4123 23.9259 25.5938 23.6357V23.6357ZM15 9.45384L24.2968 12.9642C23.8852 13.118 15.41 16.2829 15 16.436C14.6904 16.3205 6.37043 13.2134 5.70319 12.9642L15 9.45384ZM21.3281 19.6924C17.2291 21.2116 12.7709 21.2116 8.67188 19.6924V15.574L14.7541 17.8454C14.9127 17.9045 15.0874 17.9045 15.2461 17.8454L21.3281 15.574V19.6924ZM24.8907 24.9209C25.2783 24.9209 25.5938 25.2364 25.5938 25.6241C25.5938 26.0119 25.2783 26.3272 24.8907 26.3272C24.503 26.3272 24.1875 26.0119 24.1875 25.6241C24.1875 25.2364 24.503 24.9209 24.8907 24.9209ZM25.5938 30.5928H24.1875V28.4366C24.1875 28.0489 24.503 27.7334 24.8907 27.7334C25.2783 27.7334 25.5938 28.0489 25.5938 28.4366V30.5928Z" fill="#567DD0"/>
<path d="M15.7031 12.9688C15.7031 13.3571 15.3884 13.6719 15 13.6719C14.6116 13.6719 14.2969 13.3571 14.2969 12.9688C14.2969 12.5804 14.6116 12.2656 15 12.2656C15.3884 12.2656 15.7031 12.5804 15.7031 12.9688Z" fill="#567DD0"/>
</g>
<defs>
<clipPath id="clip0">
<rect width="24" height="24" fill="white" transform="translate(3 8)"/>
</clipPath>
</defs>
</svg>
