<svg width="30" height="30" viewBox="0 0 30 30" fill="none" xmlns="http://www.w3.org/2000/svg">
<circle cx="15" cy="15" r="15" fill="#EFF3FA"/>
<g clip-path="url(#clip0)">
<path d="M24.0981 10.644C24.2659 10.8118 24.4858 10.8957 24.7058 10.8957C24.9257 10.8957 25.1456 10.8118 25.3134 10.644C25.6491 10.3084 25.6491 9.76425 25.3135 9.42866C24.3622 8.47742 23.0975 7.95354 21.7523 7.95354C21.2247 7.95354 20.7097 8.03445 20.2209 8.18974C20.8171 7.30325 21.8293 6.71875 22.9756 6.71875C23.4502 6.71875 23.835 6.33401 23.835 5.85938C23.835 5.38474 23.4502 5 22.9756 5C21.2387 5 19.7044 5.88382 18.7987 7.22531C17.8929 5.88382 16.3586 5 14.6217 5C14.1471 5 13.7624 5.38474 13.7624 5.85938C13.7624 6.33401 14.1471 6.71875 14.6217 6.71875C15.7681 6.71875 16.7803 7.30325 17.3765 8.18979C16.8877 8.03445 16.3727 7.95354 15.8451 7.95354C14.4998 7.95354 13.2351 8.47742 12.2839 9.42866C11.9483 9.76429 11.9483 10.3084 12.2839 10.644C12.6196 10.9796 13.1637 10.9796 13.4993 10.644C14.1258 10.0174 14.959 9.67229 15.8451 9.67229C16.4498 9.67229 17.0295 9.83321 17.536 10.1343C15.7426 12.2168 14.6889 14.7925 14.5078 17.5379C12.3262 17.6188 10.2476 18.4592 8.62162 19.926C7.25947 21.1547 6.30054 22.7428 5.84558 24.4914C5.50793 24.2087 5.00451 24.2256 4.68723 24.5429C4.35165 24.8785 4.35165 25.4227 4.68727 25.7582C5.488 26.559 6.55268 27 7.68507 27C8.55081 27 9.37701 26.7422 10.0759 26.263C11.5115 27.2432 13.4202 27.2432 14.8556 26.2625C16.2909 27.2431 18.1997 27.2432 19.6352 26.263C20.3341 26.7422 21.1603 27 22.0261 27C23.1585 27 24.2231 26.559 25.0239 25.7582C25.3595 25.4227 25.3595 24.8785 25.024 24.5429C24.7066 24.2256 24.2032 24.2087 23.8656 24.4914C23.4106 22.7428 22.4517 21.1547 21.0896 19.926C19.7194 18.69 18.0278 17.8989 16.224 17.632C16.395 15.1152 17.4153 12.7647 19.1463 10.914C20.8128 11.0883 22.1163 12.5013 22.1163 14.2132C22.1163 14.6879 22.501 15.0726 22.9756 15.0726C23.4503 15.0726 23.835 14.6879 23.835 14.2132C23.835 12.2658 22.7239 10.5732 21.1025 9.73554C21.3142 9.69373 21.5316 9.67225 21.7523 9.67225C22.6384 9.67229 23.4715 10.0174 24.0981 10.644ZM22.2833 25.2682C22.1984 25.2768 22.1126 25.2812 22.0261 25.2812C21.3527 25.2812 20.7197 25.019 20.2436 24.5429C20.0825 24.3818 19.8639 24.2912 19.6359 24.2912C19.408 24.2912 19.1894 24.3817 19.0283 24.5429C18.0454 25.5258 16.4461 25.5258 15.4632 24.5429C15.1276 24.2073 14.5835 24.2073 14.2479 24.5429C13.265 25.5258 11.6657 25.5258 10.6828 24.5429C10.5217 24.3817 10.3031 24.2912 10.0752 24.2912C9.84722 24.2912 9.62864 24.3817 9.46746 24.5429C8.99145 25.019 8.35839 25.2812 7.68507 25.2812C7.59858 25.2812 7.51277 25.2768 7.42786 25.2682C7.75683 23.7079 8.57307 22.2845 9.77288 21.2022C11.1688 19.943 12.9738 19.2496 14.8556 19.2496C16.7373 19.2496 18.5424 19.9431 19.9383 21.2022C21.1381 22.2845 21.9544 23.7079 22.2833 25.2682Z" fill="#567DD0"/>
</g>
<defs>
<clipPath id="clip0">
<rect width="22" height="22" fill="white" transform="translate(4 5)"/>
</clipPath>
</defs>
</svg>
