<svg width="30" height="30" viewBox="0 0 30 30" fill="none" xmlns="http://www.w3.org/2000/svg">
<circle cx="15" cy="15" r="15" fill="#EFF3FA"/>
<path d="M9.36541 12.6519C8.07081 12.6519 7.01758 13.7051 7.01758 14.9997C7.01758 16.2943 8.07081 17.3475 9.36541 17.3475C10.66 17.3475 11.7132 16.2943 11.7132 14.9997C11.7132 13.7051 10.66 12.6519 9.36541 12.6519ZM9.36541 15.7823C8.93388 15.7823 8.58278 15.4312 8.58278 14.9997C8.58278 14.5682 8.93388 14.2171 9.36541 14.2171C9.79694 14.2171 10.148 14.5682 10.148 14.9997C10.148 15.4312 9.79694 15.7823 9.36541 15.7823Z" fill="#567DD0"/>
<path d="M13.6712 18.3888C13.1281 18.0753 12.4954 17.992 11.8896 18.1542C11.2838 18.3165 10.7776 18.705 10.464 19.2481C10.1505 19.7912 10.0671 20.4239 10.2294 21.0297C10.3918 21.6354 10.7802 22.1417 11.3234 22.4553C11.6922 22.6682 12.0952 22.7694 12.4934 22.7694C13.3053 22.7694 14.0963 22.3483 14.5306 21.596C15.1778 20.4748 14.7923 19.0361 13.6712 18.3888ZM13.175 20.8134C13.0705 20.9944 12.9017 21.1239 12.6998 21.178C12.4979 21.2321 12.2869 21.2043 12.1059 21.0998C11.9249 20.9953 11.7954 20.8265 11.7413 20.6246C11.6872 20.4227 11.7149 20.2118 11.8195 20.0307C11.9239 19.8497 12.0927 19.7202 12.2946 19.6661C12.362 19.6481 12.4304 19.6391 12.4984 19.6391C12.634 19.6391 12.7679 19.6746 12.8885 19.7442C13.2623 19.9601 13.3907 20.4396 13.175 20.8134Z" fill="#567DD0"/>
<path d="M19.9309 7.54456C19.3878 7.23101 18.7551 7.14771 18.1494 7.30999C17.5436 7.47232 17.0374 7.86078 16.7238 8.40387C16.4102 8.94701 16.3269 9.57973 16.4892 10.1855C16.6516 10.7913 17.04 11.2976 17.5831 11.6111C17.945 11.82 18.3464 11.9267 18.7532 11.9267C18.9572 11.9267 19.1625 11.8999 19.3647 11.8457C19.9704 11.6833 20.4767 11.2949 20.7903 10.7517C21.4376 9.63054 21.0521 8.19181 19.9309 7.54456ZM19.4348 9.96912C19.3303 10.1502 19.1616 10.2797 18.9596 10.3338C18.7577 10.3879 18.5468 10.3602 18.3658 10.2556C18.1847 10.1511 18.0552 9.98229 18.0011 9.78036C17.947 9.57847 17.9748 9.36758 18.0793 9.1865C18.2261 8.9322 18.4905 8.79481 18.7583 8.79481C19.3542 8.79486 19.7368 9.44609 19.4348 9.96912Z" fill="#567DD0"/>
<path d="M20.7904 19.2482C20.4768 18.7051 19.9705 18.3166 19.3647 18.1543C18.759 17.9919 18.1263 18.0753 17.5831 18.3888C17.04 18.7024 16.6516 19.2087 16.4892 19.8145C16.3269 20.4202 16.4102 21.0529 16.7238 21.596C17.1582 22.3484 17.9489 22.7695 18.761 22.7695C19.1589 22.7695 19.5622 22.6683 19.9309 22.4553C21.0521 21.8081 21.4377 20.3694 20.7904 19.2482ZM19.1484 21.0999C18.7747 21.3156 18.2951 21.1871 18.0794 20.8135C17.9749 20.6324 17.9471 20.4215 18.0012 20.2196C18.0553 20.0177 18.1848 19.8489 18.3659 19.7444C18.4865 19.6748 18.6203 19.6392 18.7559 19.6392C18.8239 19.6392 18.8924 19.6481 18.9598 19.6662C19.1617 19.7203 19.3305 19.8498 19.435 20.0309C19.6507 20.4046 19.5221 20.8841 19.1484 21.0999Z" fill="#567DD0"/>
<path d="M14.5306 8.40397C14.2171 7.86083 13.7108 7.47233 13.1049 7.31005C12.4993 7.14767 11.8665 7.23101 11.3234 7.54461C10.7802 7.85816 10.3918 8.36445 10.2294 8.97022C10.0671 9.57594 10.1505 10.2087 10.464 10.7518C10.7776 11.2949 11.2839 11.6833 11.8896 11.8457C12.0919 11.8999 12.2972 11.9268 12.5011 11.9268C12.9079 11.9268 13.3095 11.8201 13.6712 11.6112C14.7924 10.9639 15.1779 9.52512 14.5306 8.40397ZM12.8886 10.2556C12.7076 10.3601 12.4967 10.3879 12.2947 10.3338C12.0928 10.2797 11.9241 10.1502 11.8195 9.96917C11.715 9.78814 11.6872 9.5772 11.7413 9.37531C11.7954 9.17342 11.9249 9.00462 12.1059 8.90009C12.2266 8.83048 12.3603 8.79491 12.496 8.79491C12.564 8.79491 12.6324 8.80381 12.6999 8.82195C12.9017 8.87605 13.0705 9.00556 13.1751 9.18659C13.3908 9.56028 13.2624 10.0399 12.8886 10.2556Z" fill="#567DD0"/>
<path d="M26.0215 18.3956C25.5418 17.5639 24.6666 17.087 23.6205 17.087C22.5123 17.087 21.5557 16.3439 21.3955 15.3585C21.2934 14.7306 21.4598 14.123 21.8641 13.6477C22.2611 13.1808 22.8403 12.913 23.453 12.913C24.6036 12.913 25.542 12.429 26.0276 11.5849C26.4867 10.7869 26.4794 9.78788 26.0085 8.97787C23.8658 5.29064 19.8879 3 15.6273 3C12.7359 3 10.0545 3.97191 7.87286 5.81072C5.79606 7.56117 4.37088 9.97341 3.85994 12.603C3.16169 16.1966 4.07683 19.8535 6.3707 22.636C8.65708 25.4094 12.0308 27 15.627 27C19.8977 27 23.8804 24.7011 26.021 21.0003C26.4852 20.198 26.4854 19.1999 26.0215 18.3956ZM24.6662 20.2166C22.8044 23.4353 19.3408 25.4348 15.627 25.4348C12.4999 25.4348 9.56636 24.0517 7.57839 21.6404C5.58288 19.2199 4.78759 16.0347 5.39636 12.9016C6.33494 8.07112 10.6377 4.5652 15.6273 4.5652C19.3323 4.5652 22.7916 6.55739 24.6553 9.76448C24.8428 10.0869 24.8489 10.4951 24.6709 10.8044C24.4664 11.1599 24.0453 11.3478 23.4531 11.3478C22.3805 11.3478 21.3668 11.8164 20.6718 12.6336C19.9755 13.4523 19.6762 14.537 19.8505 15.6097C20.1326 17.3441 21.7533 18.6521 23.6205 18.6521C24.099 18.6521 24.4702 18.8387 24.6656 19.1775C24.8509 19.4989 24.8511 19.8969 24.6662 20.2166Z" fill="#567DD0"/>
</svg>
