<svg width="30" height="30" viewBox="0 0 30 30" fill="none" xmlns="http://www.w3.org/2000/svg">
<circle cx="15" cy="15" r="15" fill="#EFF3FA"/>
<g clip-path="url(#clip0)">
<path d="M23.4382 3.41626H6.5622C4.59827 3.41626 3 5.01373 3 6.97767V20.3089C3 22.272 4.59827 23.8694 6.5622 23.8699H8.08313C8.50744 23.8699 8.85107 23.5262 8.85107 23.1019C8.85107 22.6776 8.50744 22.3336 8.08313 22.3336H6.5622C5.44482 22.3336 4.53546 21.4258 4.53546 20.3093V6.97767C4.53546 5.8607 5.44444 4.95214 6.5622 4.95214H23.4386C24.5556 4.95214 25.4645 5.8607 25.4645 6.97767V20.3089C25.4645 21.425 24.556 22.3331 23.4386 22.3331H14.4571C14.3132 22.3331 14.1722 22.3731 14.0499 22.4496L10.8796 24.4306V23.1015C10.8796 22.6772 10.5359 22.3331 10.1116 22.3331C9.6873 22.3331 9.34367 22.6772 9.34367 23.1015V25.8163C9.34367 26.095 9.4947 26.3525 9.73887 26.4877C9.85535 26.5518 9.98346 26.5838 10.1116 26.5838C10.253 26.5838 10.3941 26.5452 10.5185 26.4678L14.6768 23.8698H23.4383C25.4022 23.8698 27.0001 22.2724 27.0001 20.3092V6.97767C27 5.01373 25.4022 3.41626 23.4382 3.41626Z" fill="#567DD0"/>
<path d="M10.8237 17.1372C10.9448 17.5441 11.3716 17.7758 11.7793 17.6539C12.1853 17.5325 12.4166 17.1048 12.2951 16.6983L11.8112 15.077C11.8092 15.0702 11.8074 15.0634 11.8052 15.0566L10.3403 10.1484C10.243 9.82308 9.9443 9.6001 9.60441 9.6001C9.26453 9.6001 8.965 9.82308 8.86811 10.1484L7.43001 14.9712C7.40016 15.0358 7.37925 15.1052 7.36833 15.178L6.91501 16.6983C6.79393 17.1048 7.02483 17.5324 7.4317 17.6539C7.5045 17.6759 7.57856 17.6859 7.65135 17.6859C7.98205 17.6859 8.28744 17.47 8.38728 17.1372L8.70837 16.0606H10.5024L10.8237 17.1372ZM9.16633 14.5247L9.60479 13.0546L10.0437 14.5247H9.16633Z" fill="#567DD0"/>
<path d="M22.3488 12.8495C22.7731 12.8495 23.1167 12.5059 23.1167 12.0816V11.7924C23.1167 10.5836 22.1 9.6001 20.8499 9.6001H20.7152C19.4655 9.6001 18.4492 10.5835 18.4492 11.7924V15.4932C18.4492 16.7025 19.4655 17.6856 20.7152 17.6856H20.8499C22.1 17.6856 23.1167 16.7026 23.1167 15.4932V15.1421C23.1167 14.7182 22.7731 14.3742 22.3488 14.3742C21.9245 14.3742 21.5808 14.7178 21.5808 15.1421V15.4932C21.5808 15.8489 21.2455 16.1497 20.8495 16.1497H20.7147C20.3191 16.1497 19.9843 15.8489 19.9843 15.4932V11.7924C19.9843 11.4368 20.3191 11.136 20.7147 11.136H20.8495C21.2455 11.136 21.5808 11.4368 21.5808 11.7924V12.0816C21.5808 12.5054 21.9245 12.8495 22.3488 12.8495Z" fill="#567DD0"/>
<path d="M12.9727 16.9176C12.9727 17.3419 13.3163 17.6855 13.7406 17.6855H15.3917C16.7416 17.6855 17.8399 16.5739 17.8399 15.2082V15.0547C17.8399 14.2679 17.4751 13.5661 16.9083 13.1118C17.1316 12.7684 17.2618 12.3591 17.2616 11.9197V11.792C17.2616 10.5831 16.2782 9.59961 15.0689 9.59961H13.7406C13.3163 9.59961 12.9727 9.94367 12.9727 10.3675C12.9727 10.3676 12.9727 10.3677 12.9727 10.3677C12.9727 10.3678 12.9727 10.3679 12.9727 10.3679V16.9176H12.9727ZM16.304 15.2078C16.304 15.727 15.8946 16.1496 15.3917 16.1496H14.5085V14.1129H15.0693C15.1384 14.1129 15.2067 14.1093 15.2743 14.103C15.3127 14.1089 15.3517 14.1129 15.3917 14.1129C15.8946 14.1129 16.304 14.5351 16.304 15.0543V15.2078ZM15.7262 11.792V11.9197C15.7262 12.2825 15.4312 12.577 15.0689 12.577H14.5086V11.1356H15.0689C15.4312 11.1355 15.7262 11.4301 15.7262 11.792Z" fill="#567DD0"/>
</g>
<defs>
<clipPath id="clip0">
<rect width="24" height="24" fill="white" transform="translate(3 3)"/>
</clipPath>
</defs>
</svg>
