<svg width="30" height="30" viewBox="0 0 30 30" fill="none" xmlns="http://www.w3.org/2000/svg">
<circle cx="15" cy="15" r="15" fill="#EFF3FA"/>
<g clip-path="url(#clip0)">
<path d="M24.799 23.5429L18.7481 9.66451C19.7479 8.75163 20.4039 7.53229 20.6157 6.17369L21.2693 1.98166C21.3463 1.48614 21.2043 0.983292 20.8795 0.602036C20.5536 0.219391 20.0787 0 19.5771 0C18.8903 0 18.272 0.409226 18.0021 1.0428C17.5746 2.04652 16.8621 2.88382 15.9417 3.46384C15.3692 3.82446 14.6295 3.82446 14.0572 3.46404C13.1368 2.88382 12.4243 2.04652 11.9968 1.0428C11.7272 0.409424 11.1089 0 10.4218 0C9.91992 0 9.44543 0.219391 9.11932 0.602036C8.7946 0.98349 8.65257 1.48634 8.72973 1.98166L9.38314 6.17369C9.5948 7.53209 10.2512 8.75143 11.2509 9.66431L5.19984 23.5429C4.94355 24.1302 5.18496 24.8283 5.74951 25.132C6.2236 25.3871 6.82662 25.2956 7.21562 24.9092C7.68812 24.4405 8.4542 24.4428 8.92373 24.9146C9.62078 25.6146 10.5475 26 11.5334 26C12.5193 26 13.446 25.6146 14.1429 24.9146C14.3718 24.6844 14.6761 24.5579 14.9994 24.5579C15.323 24.5579 15.6271 24.6844 15.8562 24.9146C16.553 25.6146 17.4796 26 18.4656 26C19.4513 26 20.3781 25.6146 21.0751 24.9146C21.304 24.6844 21.6083 24.5579 21.9317 24.5579C22.2552 24.5579 22.5595 24.6844 22.7884 24.9146C23.2095 25.3377 23.8723 25.3997 24.3638 25.0621C24.8536 24.7265 25.0365 24.0876 24.799 23.5429V23.5429ZM12.6774 10.2047H17.3215L18.278 12.3984H11.7211L12.6774 10.2047ZM10.8885 5.93903L10.2351 1.74739C10.2264 1.69046 10.2425 1.63293 10.2794 1.58969C10.3157 1.54704 10.3664 1.52344 10.4218 1.52344C10.497 1.52344 10.565 1.56906 10.5949 1.63968C11.1446 2.93004 12.0609 4.00656 13.2451 4.75281C14.3107 5.42427 15.6882 5.42427 16.754 4.75281C17.938 4.00656 18.8542 2.93004 19.4037 1.63988C19.4339 1.56906 19.5019 1.52344 19.5771 1.52344C19.6324 1.52344 19.6832 1.54704 19.7197 1.58989C19.7566 1.63313 19.7727 1.69066 19.7639 1.74739L19.1105 5.93903C18.9413 7.02348 18.393 7.98853 17.5577 8.68121H12.4413C11.6058 7.98833 11.0575 7.02348 10.8885 5.93903V5.93903ZM21.9317 23.0345C21.1999 23.0345 20.5122 23.3205 19.9954 23.8398C19.5864 24.2504 19.0431 24.4766 18.4656 24.4766C17.888 24.4766 17.3447 24.2504 16.9361 23.8398C16.4189 23.3205 15.7312 23.0345 14.9994 23.0345C14.2677 23.0345 13.5799 23.3205 13.063 23.8398C12.6542 24.2504 12.111 24.4766 11.5334 24.4766C10.9558 24.4766 10.4125 24.2504 10.0036 23.8398C9.19113 23.0235 7.98567 22.8289 6.98591 23.2582L11.0567 13.9216H18.9421L23.0118 23.2554C22.6751 23.1106 22.3092 23.0345 21.9317 23.0345Z" fill="#567DD0"/>
</g>
<defs>
<clipPath id="clip0">
<rect width="26" height="26" fill="white" transform="translate(2)"/>
</clipPath>
</defs>
</svg>
