<svg width="30" height="30" viewBox="0 0 30 30" fill="none" xmlns="http://www.w3.org/2000/svg">
<circle cx="15" cy="15" r="15" fill="#EFF3FA"/>
<path d="M20.8333 9H20.3825C20.6675 8.50907 20.8333 7.94084 20.8333 7.33333V4H17.5C16.5041 4 15.6112 4.44128 15 5.13586C14.3888 4.44128 13.4959 4 12.5 4H9.16667V7.33333C9.16667 7.94084 9.33248 8.50907 9.61751 9H7.5C6.12122 9 5 10.1212 5 11.5C5 12.1396 5.2417 12.7242 5.63843 13.1667C5.2417 13.6096 5 14.1937 5 14.8333C5 15.7224 5.46794 16.5028 6.16964 16.9462C5.44718 17.6959 5 18.7125 5 19.8333C5 22.1309 6.8691 24 9.16667 24H22.5C23.8788 24 25 22.8788 25 21.5C25 20.8604 24.7583 20.2758 24.3616 19.8333C24.7583 19.3908 25 18.8063 25 18.1667C25 17.2776 24.5321 16.4972 23.8304 16.0538C24.5528 15.3041 25 14.2875 25 13.1667C25 10.8691 23.1309 9 20.8333 9ZM17.5 5.66667H19.1667V7.33333C19.1667 8.25252 18.4192 9 17.5 9H15.8333V7.33333C15.8333 6.41414 16.5808 5.66667 17.5 5.66667ZM10.8333 7.33333V5.66667H12.5C13.4192 5.66667 14.1667 6.41414 14.1667 7.33333V9H12.5C11.5808 9 10.8333 8.25252 10.8333 7.33333ZM7.5 12.3333C7.04041 12.3333 6.66667 11.9596 6.66667 11.5C6.66667 11.0404 7.04041 10.6667 7.5 10.6667H20.8333C22.2121 10.6667 23.3333 11.7879 23.3333 13.1667C23.3333 14.5455 22.2121 15.6667 20.8333 15.6667H7.5C7.04041 15.6667 6.66667 15.2929 6.66667 14.8333C6.66667 14.3737 7.04041 14 7.5 14H20V12.3333H7.5ZM22.5 20.6667C22.9596 20.6667 23.3333 21.0404 23.3333 21.5C23.3333 21.9596 22.9596 22.3333 22.5 22.3333H9.16667C7.78788 22.3333 6.66667 21.2121 6.66667 19.8333C6.66667 18.4545 7.78788 17.3333 9.16667 17.3333H22.5C22.9596 17.3333 23.3333 17.7071 23.3333 18.1667C23.3333 18.6263 22.9596 19 22.5 19H10V20.6667H22.5Z" fill="#567DD0"/>
</svg>
