<svg width="30" height="30" viewBox="0 0 30 30" fill="none" xmlns="http://www.w3.org/2000/svg">
<circle cx="15" cy="15" r="15" fill="#EFF3FA"/>
<g clip-path="url(#clip0)">
<path d="M23.6257 16.3688C23.4647 16.2065 23.2457 16.115 23.017 16.1147C23.0165 16.1147 23.016 16.1147 23.0157 16.1147C22.7876 16.1147 22.5689 16.2053 22.4078 16.3668L20.3134 18.4646C19.9782 18.8002 19.9785 19.3444 20.3144 19.6796C20.6502 20.015 21.1942 20.0145 21.5294 19.6786L23.0137 18.192L23.8138 18.9983C24.479 19.6657 24.4803 20.7528 23.8167 21.4217L22.4756 22.7735C22.1515 23.1003 21.7194 23.2807 21.2592 23.2816C21.258 23.2816 21.2567 23.2816 21.2557 23.2816C20.7966 23.2816 20.3652 23.103 20.0403 22.778L16.2516 18.9929L24.7492 10.5126C25.5806 9.68147 26.0383 8.57637 26.0383 7.40094C26.0383 6.22534 25.5806 5.12024 24.7492 4.28906C23.9182 3.45772 22.8129 3 21.6375 3C20.4619 3 19.3568 3.45772 18.5256 4.28906L15.0356 7.77893L11.2743 4.01346C10.6254 3.36255 9.76201 3.00369 8.84288 3.00302C8.84204 3.00302 8.84103 3.00302 8.84019 3.00302C7.92224 3.00302 7.05917 3.36037 6.41011 4.0096L5.04954 5.37C3.70962 6.70992 3.70962 8.89024 5.04988 10.2305L8.81871 13.996L6.22648 16.5882C6.12175 16.6928 6.04588 16.8227 6.00627 16.9653L4.07452 23.9058C3.9911 24.2051 4.07586 24.5262 4.29624 24.7452C4.45956 24.9077 4.67826 24.9953 4.90217 24.9953C4.98055 24.9953 5.05944 24.9846 5.13699 24.9626L11.8935 23.0434C12.0934 23.03 12.2894 22.9469 12.4424 22.7943L15.0353 20.2066L18.8256 23.9934C19.4748 24.6427 20.3375 25 21.2555 25H21.2625C22.1832 24.9982 23.0473 24.6373 23.6955 23.9837L25.0367 22.6319C26.3639 21.2941 26.3614 19.1198 25.0324 17.7866L23.6257 16.3688ZM18.2668 6.97797L22.0588 10.77L20.824 12.0023L17.0331 8.21164L18.2668 6.97797ZM21.6375 4.71841C22.3539 4.71841 23.0276 4.99738 23.5342 5.5041C24.0409 6.01067 24.3199 6.6844 24.3199 7.40094C24.3199 8.11731 24.0409 8.79088 23.5349 9.29694L23.2752 9.55626L19.4819 5.76292L19.7407 5.5041C20.2474 4.99738 20.921 4.71841 21.6375 4.71841V4.71841ZM6.26475 9.01529C5.59471 8.34525 5.59471 7.25508 6.26475 6.58504L7.62515 5.22464C7.94977 4.90002 8.38113 4.72144 8.84019 4.72144H8.84154C9.3011 4.72177 9.7328 4.9012 10.0579 5.22733L10.8743 6.04474L9.36287 7.5562C9.02734 7.89172 9.02734 8.43571 9.36287 8.77124C9.53072 8.93892 9.75059 9.02284 9.97047 9.02284C10.1904 9.02284 10.4102 8.93892 10.5779 8.77124L12.0887 7.26045L13.8205 8.99414L10.0338 12.7808L6.26475 9.01529ZM6.14054 22.8912L7.27838 18.8034L10.2031 21.7372L6.14054 22.8912ZM11.8514 20.9566L8.07548 17.1693L15.8181 9.42668L19.6076 13.2162L11.8514 20.9566Z" fill="#567DD0"/>
</g>
<defs>
<clipPath id="clip0">
<rect width="22" height="22" fill="white" transform="translate(4 3)"/>
</clipPath>
</defs>
</svg>
