<svg width="28" height="28" viewBox="0 0 28 28" fill="none" xmlns="http://www.w3.org/2000/svg">
<g opacity="0.6" clip-path="url(#clip0)">
<path d="M27.4514 2.29416C27.0009 1.88144 26.3607 1.7439 25.7804 1.93514L1.16072 10.0508C0.489756 10.272 0.0347556 10.8709 0.00156029 11.5766C-0.0315804 12.2823 0.365178 12.9213 1.01235 13.2045L5.95638 15.3676L20.5126 7.28901C20.8681 7.09169 21.3143 7.1839 21.5626 7.50562C21.8109 7.82746 21.7868 8.28241 21.5058 8.57619L12.4312 18.0648L10.57 24.7889L15.037 21.4441L20.3192 25.7665C20.6269 26.0184 21.0029 26.1498 21.3863 26.1498C21.5688 26.1497 21.7531 26.12 21.9324 26.0592C22.4884 25.8707 22.9005 25.4169 23.0349 24.8455L27.9548 3.9273C28.0947 3.33268 27.9018 2.70689 27.4514 2.29416Z" fill="#567DD0"/>
<path d="M7.24475 16.5335L8.95434 24.4628L10.9019 17.4266C10.9381 17.2957 11.0062 17.1758 11.1 17.0777L16.5704 11.3579L7.24475 16.5335Z" fill="#567DD0"/>
</g>
<defs>
<clipPath id="clip0">
<rect width="28" height="28" fill="white"/>
</clipPath>
</defs>
</svg>
