<svg width="16" height="16" viewBox="0 0 16 16" fill="none" xmlns="http://www.w3.org/2000/svg">
<g opacity="0.6" clip-path="url(#clip0)">
<path d="M8.00071 0C3.58263 0 0.000976562 3.58192 0.000976562 7.99984C0.000976562 12.4178 3.58263 16 8.00071 16C12.4188 16 16.0009 12.418 16.0009 7.99984C16.0009 3.58171 12.4188 0 8.00071 0ZM12.0203 6.57611L10.0637 8.53269C9.85148 8.74491 9.56935 8.86176 9.26929 8.86176C8.9693 8.86176 8.68711 8.74485 8.47489 8.5328L8.39826 8.45616L8.18994 8.66448L8.26641 8.74096C8.7045 9.17904 8.7045 9.89184 8.26641 10.3299L6.3101 12.2865C6.09788 12.4987 5.81575 12.6156 5.51554 12.6156C5.21538 12.6156 4.93319 12.4987 4.72087 12.2863L3.9814 11.5467C3.54332 11.1089 3.54332 10.3961 3.98124 9.95787L5.93799 8.00139C6.1502 7.78917 6.43234 7.67232 6.73255 7.67232C7.03276 7.67232 7.31474 7.78923 7.52711 8.00139L7.60348 8.07776L7.8118 7.86944L7.73543 7.79307C7.29735 7.35515 7.29735 6.64235 7.73516 6.20427L9.69191 4.24768C9.90423 4.03536 10.1864 3.91845 10.4865 3.91845C10.7865 3.91845 11.0687 4.03536 11.281 4.24752L12.0207 4.98741C12.4584 5.42523 12.4584 6.13813 12.0203 6.57611Z" fill="#567DD0"/>
<path d="M7.60207 9.2511L7.22378 9.6294L6.637 9.04278L7.0153 8.66449L6.93892 8.58812C6.88346 8.53281 6.80975 8.5022 6.73146 8.5022C6.653 8.5022 6.5793 8.53276 6.52383 8.58812L4.56725 10.5444C4.45285 10.6589 4.45285 10.8451 4.56725 10.9595L5.30698 11.6994C5.41807 11.8105 5.61141 11.8104 5.72223 11.6996L7.67855 9.743C7.79311 9.62849 7.79311 9.44214 7.67855 9.32758L7.60207 9.2511Z" fill="#567DD0"/>
<path d="M10.6929 4.83432C10.6375 4.77885 10.5636 4.74829 10.4851 4.74829C10.4067 4.74829 10.3328 4.77885 10.2774 4.83448L8.32077 6.79096C8.20653 6.90546 8.20653 7.09165 8.32093 7.20621L8.39741 7.28258L8.97767 6.70216L9.56445 7.28893L8.98418 7.86936L9.06066 7.94584C9.17176 8.05661 9.36482 8.05677 9.47592 7.94568L11.4324 5.98936C11.5468 5.87485 11.5468 5.68866 11.4324 5.5741L10.6929 4.83432Z" fill="#567DD0"/>
</g>
<defs>
<clipPath id="clip0">
<rect width="16" height="16" fill="white"/>
</clipPath>
</defs>
</svg>
