<svg width="16" height="16" viewBox="0 0 16 16" fill="none" xmlns="http://www.w3.org/2000/svg">
<g opacity="0.6">
<circle cx="8" cy="8" r="8" fill="#567DD0"/>
<path d="M11.2638 6H4.7362C4.33027 6 4 6.3139 4 6.70024C4 7.08608 4.33027 7.4 4.7362 7.4H11.2638C11.6697 7.4 12 7.08608 12 6.70024C12 6.3139 11.6697 6 11.2638 6Z" fill="#0C389A"/>
<path d="M11.2638 8.6001H4.7362C4.33027 8.6001 4 8.914 4 9.30034C4 9.68618 4.33027 10.0001 4.7362 10.0001H11.2638C11.6697 10.0001 12 9.68618 12 9.30034C12 8.914 11.6697 8.6001 11.2638 8.6001Z" fill="#0C389A"/>
</g>
</svg>
