<svg width="16" height="16" viewBox="0 0 16 16" fill="none" xmlns="http://www.w3.org/2000/svg">
<g opacity="0.6">
<path d="M14.7937 12.2258C15.558 10.9995 16 9.5515 16 7.99969C16 3.58113 12.4186 0 8 0C3.58144 0 0 3.58113 0 7.99969C0 12.4195 3.58144 16 8 16C9.55184 16 11.0002 15.5578 12.2267 14.7932L15.7331 15.7325L14.7937 12.2258ZM8 3.73088C8.55456 3.73088 9.00447 4.18047 9.00447 4.73534C9.00447 5.28991 8.55488 5.73981 8 5.73981C7.44513 5.73981 6.99553 5.29022 6.99553 4.73534C6.99553 4.18047 7.44544 3.73088 8 3.73088ZM9.75775 12.2694H6.24225V10.7626H6.99553V7.74913H6.24225V6.24256H9.0045V7.74913V10.7626H9.75778V12.2694H9.75775Z" fill="#567DD0"/>
</g>
</svg>
