<svg width="30" height="30" viewBox="0 0 30 30" fill="none" xmlns="http://www.w3.org/2000/svg">
<path d="M15.0002 6.44897C11.9292 6.44897 9.43066 8.94747 9.43066 12.0185C9.43066 15.0895 11.9292 17.588 15.0002 17.588C18.0712 17.588 20.5697 15.0895 20.5697 12.0185C20.5697 8.94747 18.0712 6.44897 15.0002 6.44897ZM15.0002 15.243C13.2222 15.243 11.7757 13.7965 11.7757 12.0185C11.7757 10.2405 13.2222 8.79401 15.0002 8.79401C16.7781 8.79401 18.2246 10.2405 18.2246 12.0185C18.2246 13.7965 16.7781 15.243 15.0002 15.243Z" fill="#FF6768"/>
<path d="M14.9999 0C8.37289 0 2.98145 5.3915 2.98145 12.0185V12.3507C2.98145 15.7022 4.90297 19.6079 8.69281 23.9589C11.4402 27.1131 14.1491 29.3125 14.263 29.4046L14.9999 30L15.7368 29.4046C15.8507 29.3125 18.5597 27.1131 21.307 23.9589C25.0968 19.6079 27.0184 15.7023 27.0184 12.3507V12.0185C27.0184 5.3915 21.6269 0 14.9999 0ZM24.6733 12.3507C24.6733 18.0147 17.3754 24.8711 14.9999 26.9524C12.6238 24.8704 5.32648 18.0143 5.32648 12.3507V12.0185C5.32648 6.68461 9.666 2.3451 14.9999 2.3451C20.3338 2.3451 24.6733 6.68461 24.6733 12.0185V12.3507Z" fill="#567DD0"/>
</svg>
