<svg width="32" height="32" viewBox="0 0 32 32" fill="none" xmlns="http://www.w3.org/2000/svg">
<path fillRule="evenodd" clipRule="evenodd" d="M13.5253 4.06246C13.0816 4.15045 12.7484 4.26697 12.3651 4.46824C11.0995 5.13277 10.2541 6.37663 10.0396 7.89003C10.0036 8.14382 9.99358 10.3169 10.0038 15.68L10.0179 23.1179L10.1357 23.5403C10.7764 25.8364 12.3906 27.4295 14.5624 27.9089C15.1128 28.0304 16.1745 28.0304 16.7249 27.9089C18.8967 27.4295 20.5106 25.8369 21.1517 23.5403L21.2696 23.1179L21.2819 15.0582L21.2941 6.99841H20.5873H19.8804L19.8804 14.6828C19.8803 22.8274 19.8842 22.6584 19.6797 23.3748C19.4971 24.0142 19.0704 24.7437 18.5924 25.2337C17.942 25.9004 17.2419 26.2771 16.3277 26.4524C15.2843 26.6524 14.0811 26.3595 13.1997 25.6909C12.4793 25.1443 11.8526 24.2327 11.6076 23.3748C11.4039 22.6611 11.407 22.7855 11.4078 15.2811C11.4086 7.36891 11.3892 7.86493 11.7247 7.1422C12.1811 6.15917 13.1887 5.49838 14.2314 5.49838C15.2743 5.49838 16.2818 6.15917 16.7383 7.14248C17.0771 7.87244 17.0584 7.37655 17.0455 15.2927L17.0339 22.3671L16.9182 22.6292C16.6749 23.1811 16.2148 23.4927 15.6437 23.4927C15.0726 23.4927 14.6125 23.1811 14.3691 22.6292L14.2535 22.3671L14.2418 16.1844L14.2301 10.0018H13.5247H12.8192L12.8199 16.161C12.8208 23.0433 12.8037 22.6552 13.137 23.373C13.6927 24.5703 14.989 25.229 16.2366 24.9479C17.2877 24.7112 18.1791 23.7632 18.4018 22.6457C18.498 22.1626 18.5005 8.33931 18.4044 7.77271C18.3167 7.25553 18.2229 6.94567 18.025 6.51957C17.3021 4.96294 15.8017 3.97803 14.1873 4.00037C13.981 4.00323 13.6831 4.0312 13.5253 4.06246Z" fill="#CECECE"/>
</svg>
