<svg width="45" height="45" viewBox="0 0 45 45" fill="none" xmlns="http://www.w3.org/2000/svg">
<path fillRule="evenodd" clipRule="evenodd" d="M22.25 0C9.96167 0 0 9.96167 0 22.25C0 28.7174 2.75936 34.5404 7.165 38.6057C9.46106 32.719 14.0213 28.3444 19.5098 27.0762C16.6877 25.9787 14.6875 23.2356 14.6875 20.0255C14.6875 15.8488 18.0733 12.463 22.25 12.463C26.4267 12.463 29.8125 15.8488 29.8125 20.0255C29.8125 23.0959 27.9827 25.739 25.354 26.9236C30.9289 27.909 35.6343 32.0791 38.1301 37.8347C42.0701 33.8205 44.5 28.319 44.5 22.25C44.5 9.96167 34.5383 0 22.25 0ZM36.5734 39.2772C34.071 32.9083 28.692 28.7006 22.8062 28.7006C16.7115 28.7006 11.1602 33.2123 8.78361 39.9636C12.522 42.81 17.1887 44.5 22.25 44.5C27.7058 44.5 32.703 42.5363 36.5734 39.2772ZM22.25 25.588C25.3221 25.588 27.8125 23.0975 27.8125 20.0255C27.8125 16.9534 25.3221 14.463 22.25 14.463C19.1779 14.463 16.6875 16.9534 16.6875 20.0255C16.6875 23.0975 19.1779 25.588 22.25 25.588Z" fill="#FD686C"/>
</svg>
