<svg width="54" height="54" viewBox="0 0 54 54" fill="none" xmlns="http://www.w3.org/2000/svg">
<g clip-path="url(#clip0)">
<path d="M26.3582 43.4967L42.3186 16.9832L11.6235 20.9214C11.6321 20.928 22.4101 29.4807 22.7535 29.7532C22.913 30.362 26.2337 43.0222 26.3582 43.4967Z" fill="#FF6768"/>
<path d="M19.7178 27.3444L22.7532 29.7532L23.7363 33.5012L17.1094 33.4369L19.7178 27.3444Z" fill="#FF3031"/>
<path d="M13.9738 35.4835C13.7477 35.1371 13.2838 35.0397 12.9375 35.2657L11.0563 36.4936C10.7099 36.7196 10.6124 37.1835 10.8385 37.5299C11.0645 37.8763 11.5285 37.9737 11.8748 37.7477L13.756 36.5198C14.1024 36.2938 14.1999 35.8299 13.9738 35.4835Z" fill="#EFF3FA"/>
<path d="M20.1921 36.7902C19.9662 36.4441 19.5022 36.3463 19.1558 36.5724L15.3932 39.0282C15.0468 39.2543 14.9495 39.7185 15.1754 40.0646C15.4015 40.4109 15.8655 40.5087 16.2119 40.2826L19.9745 37.8268C20.3209 37.6007 20.4182 37.1365 20.1921 36.7902Z" fill="#EFF3FA"/>
<path d="M15.0632 30.3016C15.4096 30.0755 15.5071 29.6116 15.281 29.2653C15.0551 28.9192 14.591 28.8214 14.2447 29.0475L10.482 31.5033C10.1357 31.7294 10.0384 32.1936 10.2643 32.5397C10.4903 32.886 10.9542 32.9835 11.3006 32.7574L15.0632 30.3016Z" fill="#EFF3FA"/>
<path d="M31.2816 24.1869C31.5076 24.5333 31.4101 24.9972 31.0638 25.2233C30.7174 25.4493 30.2535 25.3518 30.0274 25.0055C29.8014 24.6591 29.8989 24.1952 30.2452 23.9691C30.5916 23.7431 31.0555 23.8406 31.2816 24.1869Z" fill="#EFF3FA"/>
<path d="M42.2231 16.2407L11.5284 20.179C11.2298 20.2171 10.9828 20.4306 10.9022 20.7208C10.8216 21.0109 10.9223 21.321 11.1581 21.5084L18.8045 27.576L16.4214 33.1424C16.3227 33.3727 16.3458 33.6367 16.4827 33.8464C16.6196 34.0561 16.8519 34.1835 17.1025 34.1859L23.1571 34.2447L25.6338 43.6868C25.7103 43.9779 25.9537 44.1951 26.2518 44.2381C26.5509 44.2811 26.8449 44.1402 26.9998 43.883L42.9601 17.3699C43.2779 16.8412 42.8497 16.1604 42.2231 16.2407ZM18.2402 32.6993L20.0208 28.5409L22.0925 30.1849L22.7636 32.7432L18.2402 32.6993ZM23.6148 30.0855L28.2421 27.0653C28.5884 26.8393 28.6862 26.3752 28.4601 26.0288C28.234 25.6825 27.7699 25.5851 27.4235 25.8112L22.7962 28.8314L13.4797 21.4385L39.1736 18.142L33.0673 22.1275C32.721 22.3536 32.6235 22.8175 32.8496 23.1639C33.0756 23.5102 33.5395 23.6077 33.8859 23.3817L39.9922 19.3961L26.6323 41.5898L23.6148 30.0855Z" fill="#EFF3FA"/>
</g>
<defs>
<clipPath id="clip0">
<rect width="38.3391" height="38.3391" fill="white" transform="translate(0.319824 21.4141) rotate(-33.1321)"/>
</clipPath>
</defs>
</svg>
