<svg width="207" height="25" viewBox="0 0 207 25" fill="none" xmlns="http://www.w3.org/2000/svg">
<path d="M30.756 12.398C30.756 10.214 31.491 8.394 32.961 6.938C34.431 5.468 36.314 4.733 38.61 4.733C40.906 4.733 42.789 5.468 44.259 6.938C45.729 8.394 46.464 10.214 46.464 12.398C46.464 13.952 45.967 15.436 44.973 16.85L46.548 18.131L44.469 20.462L42.936 19.013C41.676 19.839 40.234 20.252 38.61 20.252C36.314 20.252 34.431 19.503 32.961 18.005C31.491 16.507 30.756 14.638 30.756 12.398ZM34.557 12.398C34.557 13.686 34.935 14.757 35.691 15.611C36.461 16.465 37.434 16.892 38.61 16.892C39.254 16.892 39.8 16.78 40.248 16.556L38.715 15.212L40.773 12.881L42.264 14.33C42.53 13.714 42.663 13.07 42.663 12.398C42.663 11.166 42.278 10.144 41.508 9.332C40.738 8.506 39.772 8.093 38.61 8.093C37.434 8.093 36.461 8.506 35.691 9.332C34.935 10.144 34.557 11.166 34.557 12.398ZM49.0331 14.477V4.985H52.7081V14.477C52.7081 15.247 52.9391 15.842 53.4011 16.262C53.8771 16.682 54.5141 16.892 55.3121 16.892C56.1101 16.892 56.7401 16.682 57.2021 16.262C57.6781 15.842 57.9161 15.247 57.9161 14.477V4.985H61.5911V14.477C61.5911 16.185 61.0171 17.578 59.8691 18.656C58.7211 19.72 57.2091 20.252 55.3331 20.252C53.4431 20.252 51.9171 19.72 50.7551 18.656C49.6071 17.578 49.0331 16.185 49.0331 14.477ZM63.1178 20L68.2208 4.985H72.0848L77.1878 20H73.4078L72.4838 16.85H67.8008L66.8978 20H63.1178ZM68.6618 13.91H71.6228L70.7828 10.991L70.1738 8.408H70.1318C69.9078 9.5 69.7048 10.361 69.5228 10.991L68.6618 13.91ZM79.1211 20V4.985H84.3501C85.6801 4.985 86.6531 5.104 87.2691 5.342C88.1371 5.678 88.8161 6.224 89.3061 6.98C89.7961 7.722 90.0411 8.632 90.0411 9.71C90.0411 10.55 89.8451 11.355 89.4531 12.125C89.0611 12.881 88.5081 13.441 87.7941 13.805V13.847C87.9341 14.029 88.1231 14.33 88.3611 14.75L91.2801 20H87.1851L84.5181 14.939H82.7961V20H79.1211ZM82.7961 11.789H84.3921C84.9941 11.789 85.4631 11.628 85.7991 11.306C86.1351 10.984 86.3031 10.529 86.3031 9.941C86.3031 9.115 86.0091 8.583 85.4211 8.345C85.0991 8.205 84.6371 8.135 84.0351 8.135H82.7961V11.789ZM96.4538 20V8.135H91.8968V4.985H104.686V8.135H100.129V20H96.4538ZM106.929 20V4.985H110.604V20H106.929ZM114.178 20V4.985H123.586V8.135H117.853V10.865H122.431V14.015H117.853V16.85H123.88V20H114.178ZM126.657 20V4.985H131.886C133.216 4.985 134.189 5.104 134.805 5.342C135.673 5.678 136.352 6.224 136.842 6.98C137.332 7.722 137.577 8.632 137.577 9.71C137.577 10.55 137.381 11.355 136.989 12.125C136.597 12.881 136.044 13.441 135.33 13.805V13.847C135.47 14.029 135.659 14.33 135.897 14.75L138.816 20H134.721L132.054 14.939H130.332V20H126.657ZM130.332 11.789H131.928C132.53 11.789 132.999 11.628 133.335 11.306C133.671 10.984 133.839 10.529 133.839 9.941C133.839 9.115 133.545 8.583 132.957 8.345C132.635 8.205 132.173 8.135 131.571 8.135H130.332V11.789ZM146.364 20V4.985H150.039V16.85H156.171V20H146.364ZM156.733 20L161.836 4.985H165.7L170.803 20H167.023L166.099 16.85H161.416L160.513 20H156.733ZM162.277 13.91H165.238L164.398 10.991L163.789 8.408H163.747C163.523 9.5 163.32 10.361 163.138 10.991L162.277 13.91ZM174.801 20V8.135H170.244V4.985H183.033V8.135H178.476V20H174.801ZM185.276 20V4.985H188.951V20H185.276ZM192.525 20V4.985H196.242L200.4 11.999C200.568 12.293 200.757 12.657 200.967 13.091C201.177 13.511 201.345 13.861 201.471 14.141L201.66 14.561H201.702C201.59 13.483 201.534 12.629 201.534 11.999V4.985H205.209V20H201.513L197.334 13.007C197.166 12.713 196.977 12.356 196.767 11.936C196.557 11.502 196.389 11.145 196.263 10.865L196.074 10.445H196.032C196.144 11.523 196.2 12.377 196.2 13.007V20H192.525Z" fill="white"/>
<path d="M7.5 1H0V25H15V17.5H7.5V1Z" fill="white"/>
<path d="M16.5 25H24V1H8.99997V8.5H16.5V25Z" fill="#FF3031"/>
</svg>
