<svg width="30" height="30" viewBox="0 0 30 30" fill="none" xmlns="http://www.w3.org/2000/svg">
<path d="M24.668 4.45312V2.69531H26.4258V0.9375H3.57422V2.69531H5.33203V4.45312H0V29.0625H30V4.45312H24.668ZM7.08984 2.69531H22.9102V4.45312H7.08984V2.69531ZM28.2422 6.21094V15H19.3945V7.96875H14.1211V15H5.33203V7.96875H1.75781V6.21094H28.2422ZM17.6367 15H15.8789V9.72656H17.6367V15ZM3.57422 15H1.75781V9.72656H3.57422V15ZM1.75781 22.0312H3.57422V27.3047H1.75781V22.0312ZM17.6367 27.3047H15.8789V22.0312H17.6367V27.3047ZM19.3945 27.3047V20.2734H14.1211V27.3047H5.33203V20.2734H1.75781V16.7578H28.2422V27.3047H19.3945Z" fill="#567DD0"/>
<path d="M7.08984 25.5469H12.3633V20.2734H7.08984V25.5469ZM8.84766 22.0312H10.6055V23.7891H8.84766V22.0312Z" fill="#FF6768"/>
<path d="M21.1523 25.5469H26.4258V20.2734H21.1523V25.5469ZM22.9102 22.0312H24.668V23.7891H22.9102V22.0312Z" fill="#FF6768"/>
<path d="M12.3633 7.96875H7.08984V13.2422H12.3633V7.96875ZM10.6055 11.4844H8.84766V9.72656H10.6055V11.4844Z" fill="#FF6768"/>
<path d="M26.4258 7.96875H21.1523V13.2422H26.4258V7.96875ZM24.668 11.4844H22.9102V9.72656H24.668V11.4844Z" fill="#FF6768"/>
</svg>
