<svg width="16" height="16" viewBox="0 0 16 16" fill="none" xmlns="http://www.w3.org/2000/svg">
<path d="M15.5851 15.3442V3.45568C15.5851 3.10945 15.3088 2.79983 14.9293 2.79983C14.583 2.79983 14.2734 3.07615 14.2734 3.45568V14.6184H3.17728C2.65793 14.6184 2.2784 14.3421 2.2784 14.0658C2.2784 13.7894 2.65793 13.5131 3.17728 13.5131H12.5789C12.9251 13.5131 13.2347 13.2368 13.2347 12.8573V0.655847C13.2347 0.309613 12.9584 0 12.5789 0H3.62672C2.1752 0 1 1.00208 1 2.21057C1 2.21057 1 14.0358 1 14.099C1 15.171 1.96879 16 3.21057 16H14.9625C15.3088 16 15.6184 15.7237 15.5851 15.3442ZM2.34831 2.21057C2.34831 1.72784 2.93425 1.34499 3.62672 1.34499H11.923V12.1981H3.2139C2.90762 12.1981 2.61465 12.2514 2.34831 12.3479V2.21057Z" fill="#FF6768"/>
<path d="M4.88827 4.9406H9.27611C9.65563 4.9406 9.96857 4.63099 9.96857 4.28475C9.96857 3.93852 9.69225 3.62891 9.31273 3.62891H4.88827C4.54203 3.62891 4.23242 3.93852 4.23242 4.28475C4.23242 4.63099 4.50874 4.9406 4.88827 4.9406Z" fill="#567DD0"/>
</svg>
