<svg width="28" height="20" viewBox="0 0 28 20" fill="none" xmlns="http://www.w3.org/2000/svg">
<path d="M26 0H2C0.89543 0 0 0.89543 0 2V18C0 19.1046 0.89543 20 2 20H26C27.1046 20 28 19.1046 28 18V2C28 0.89543 27.1046 0 26 0Z" fill="white"/>
<mask id="mask0_401_717" style="mask-type:alpha" maskUnits="userSpaceOnUse" x="0" y="0" width="28" height="20">
<path d="M26 0H2C0.89543 0 0 0.89543 0 2V18C0 19.1046 0.89543 20 2 20H26C27.1046 20 28 19.1046 28 18V2C28 0.89543 27.1046 0 26 0Z" fill="white"/>
</mask>
<g mask="url(#mask0_401_717)">
<path d="M28 0H0V20H28V0Z" fill="#0A17A7"/>
<path fill-rule="evenodd" clip-rule="evenodd" d="M-1.28226 -1.91638L10.6669 6.14341V-1.33327H17.3335V6.14341L29.2827 -1.91638L30.7739 0.294382L21.3265 6.66673H28.0002V13.3334H21.3265L30.7739 19.7058L29.2827 21.9166L17.3335 13.8568V21.3334H10.6669V13.8568L-1.28226 21.9166L-2.77344 19.7058L6.67395 13.3334H0.000211477V6.66673H6.67395L-2.77344 0.294382L-1.28226 -1.91638Z" fill="white"/>
<path d="M18.668 6.33219L31.3333 -2" stroke="#DB1F35" stroke-width="0.666667" stroke-linecap="round"/>
<path d="M20.0127 13.6975L31.3665 21.3503" stroke="#DB1F35" stroke-width="0.666667" stroke-linecap="round"/>
<path d="M8.00561 6.31043L-3.8374 -1.67102" stroke="#DB1F35" stroke-width="0.666667" stroke-linecap="round"/>
<path d="M9.29012 13.6049L-3.8374 22.3105" stroke="#DB1F35" stroke-width="0.666667" stroke-linecap="round"/>
<path fill-rule="evenodd" clip-rule="evenodd" d="M0 12H12V20H16V12H28V8H16V0H12V8H0V12Z" fill="#E6273E"/>
</g>
<g clip-path="url(#clip0_401_717)">
<path d="M26.0001 0.25L0.250356 18C0.250356 18.9665 1.03364 19.75 2.00014 19.75H26.0001C26.9666 19.75 27.7501 18.9665 27.7501 18V2C27.7501 1.0335 26.9666 0.25 26.0001 0.25Z" fill="white"/>
<path d="M0.250356 18L26.0001 0.25C26.9666 0.25 27.7501 1.0335 27.7501 2V18C27.7501 18.9665 26.9666 19.75 26.0001 19.75H2.00014C1.03364 19.75 0.250356 18.9665 0.250356 18ZM0.250356 18C0.250356 17.0335 -0.716143 18 0.250356 18Z" stroke="#F5F5F5" stroke-width="0.5"/>
<mask id="mask1_401_717" style="mask-type:alpha" maskUnits="userSpaceOnUse" x="0" y="0" width="28" height="20">
<path d="M26 0.25L0.249867 18C0.249867 18.9665 1.03354 19.75 2.00003 19.75H26C26.9665 19.75 27.75 18.9665 27.75 18V2C27.75 1.0335 26.9665 0.25 26 0.25Z" fill="white"/>
<path d="M0.249867 18L26 0.25C26.9665 0.25 27.75 1.0335 27.75 2V18C27.75 18.9665 26.9665 19.75 26 19.75H2.00003C1.03354 19.75 0.249867 18.9665 0.249867 18ZM0.249867 18C0.249867 17.0335 -0.716631 18 0.249867 18Z" stroke="white" stroke-width="0.5"/>
</mask>
<g mask="url(#mask1_401_717)">
<path d="M27.9998 0H18.6665V20H27.9998V0Z" fill="#F44653"/>
<path fill-rule="evenodd" clip-rule="evenodd" d="M0 20H9.33333V0H0V20Z" fill="#1035BB"/>
<path d="M26 0L-0.5 18L0.5 20L28 1.5C28 1.33333 27.9 0.9 27.5 0.5C27.1 0.1 26.3333 0 26 0Z" fill="white"/>
</g>
</g>
<defs>
<clipPath id="clip0_401_717">
<rect width="28" height="20" fill="white"/>
</clipPath>
</defs>
</svg>
