<svg width="22" height="22" viewBox="0 0 22 22" fill="none" xmlns="http://www.w3.org/2000/svg">
<path d="M11.2162 9.99596V1.52097L11 1.19466H1.9372C0.869043 1.19466 0 2.0637 0 3.13186V7.8317L0.257812 8.22083V9.99591H11.2162V9.99596Z" fill="white"/>
<path d="M21.7422 9.99596V8.22087L22 7.83175V3.13186C22 2.0637 21.131 1.19466 20.0628 1.19466H11V9.99596H21.7422Z" fill="#CEE5F5"/>
<path d="M11.1963 10.8936H0.257812V13.6541L0 14.1683V18.8681C0 19.9363 0.869043 20.8053 1.9372 20.8053H11L11.1963 20.567V10.8936Z" fill="#F40055"/>
<path d="M21.7422 10.8936H11V20.8053H20.0628C21.131 20.8053 22 19.9363 22 18.8681V14.1683L21.7422 13.6541V10.8936Z" fill="#C20044"/>
<path d="M0 7.8317V14.1683H11L11.2912 13.5738V8.33168L11 7.8317H0Z" fill="#406BD4"/>
<path d="M11 7.8317H22V14.1683H11V7.8317Z" fill="#3257B0"/>
</svg>
