<svg width="60" height="60" viewBox="0 0 60 60" fill="none" xmlns="http://www.w3.org/2000/svg">
<circle cx="30" cy="30" r="30" fill="#EFF3FA"/>
<g clip-path="url(#clip0)">
<path d="M42.4571 14H24.7484C23.6777 14 22.8066 14.8711 22.8066 15.9418V38.8544C22.8066 39.9251 23.6777 40.7961 24.7484 40.7961H42.4571C43.5278 40.7961 44.3989 39.9251 44.3989 38.8544V15.9418C44.3989 14.8711 43.5278 14 42.4571 14ZM42.0688 38.466H25.1368V16.3301H42.0688V38.466H42.0688Z" fill="#567DD0"/>
<path d="M35.6219 21.4175H31.583C30.9395 21.4175 30.418 21.939 30.418 22.5825C30.418 23.226 30.9395 23.7476 31.583 23.7476H35.6223C36.2658 23.7476 36.787 23.226 36.787 22.5825C36.787 21.939 36.2654 21.4175 35.6219 21.4175Z" fill="#FF6768"/>
<path d="M38.0295 26.6213H29.5635C28.92 26.6213 28.3984 27.1429 28.3984 27.7864C28.3984 28.4299 28.92 28.9515 29.5635 28.9515H38.0295C38.673 28.9515 39.1946 28.4299 39.1946 27.7864C39.1946 27.1429 38.673 26.6213 38.0295 26.6213Z" fill="#FF6768"/>
<path d="M38.0295 31.4369H29.5635C28.92 31.4369 28.3984 31.9585 28.3984 32.602C28.3984 33.2455 28.92 33.767 29.5635 33.767H38.0295C38.673 33.767 39.1946 33.2455 39.1946 32.602C39.1946 31.9585 38.673 31.4369 38.0295 31.4369Z" fill="#FF6768"/>
<path d="M37.2521 39.6311V43.6699H19.9317V21.1456H23.9705V18.8156H19.5433C18.4726 18.8156 17.6016 19.6866 17.6016 20.7573V44.0582C17.6016 45.1289 18.4726 46 19.5433 46H37.6404C38.7111 46 39.5821 45.1289 39.5821 44.0582V39.6311H37.2521Z" fill="#567DD0"/>
</g>
<defs>
<clipPath id="clip0">
<rect width="32" height="32" fill="white" transform="translate(15 14)"/>
</clipPath>
</defs>
</svg>
