<svg width="60" height="60" viewBox="0 0 60 60" fill="none" xmlns="http://www.w3.org/2000/svg">
<circle cx="30" cy="30" r="30" fill="#EFF3FA"/>
<g clip-path="url(#clip0)">
<path d="M35.1364 33.272C34.5154 33.6545 33.8561 34.0306 33.1816 34.4011L34.8951 38.0312C35.0522 38.3652 35.3631 38.6003 35.7279 38.6607C35.7894 38.6706 35.8509 38.6761 35.9124 38.6761C36.2135 38.6761 36.5057 38.5553 36.7189 38.3355L39.3193 35.6604C39.5511 35.422 39.6654 35.0924 39.6324 34.7617L39.1967 30.4858C38.5381 30.9665 37.831 31.464 37.0865 31.976L37.3407 34.4683L36.2366 35.6032C36.2366 35.6033 35.1364 33.272 35.1364 33.272V33.272Z" fill="#567DD0"/>
<path d="M47.4969 16.2279C46.8321 15.5922 45.0969 15.2225 43.1815 15.2516C41.42 15.2992 38.6641 15.7435 35.5433 17.5912C34.6456 18.1219 33.4741 18.948 31.9709 20.1101L18.6077 19.1446C18.2735 19.1186 17.9494 19.2409 17.7186 19.4765L15.1626 22.0624C14.9055 22.323 14.7945 22.6905 14.8649 23.0473C14.9363 23.403 15.1803 23.7023 15.5176 23.8483L23.2031 27.1597C21.6681 28.0083 19.6504 28.8701 18.5583 29.3035L14.5442 28.5716C14.1617 28.5057 13.7847 28.6256 13.5233 28.8969L12.31 30.1522C11.8847 30.5922 11.899 31.2862 12.3408 31.7089L18.3284 37.4365C18.5428 37.6408 18.8252 37.7501 19.1131 37.7501C19.2428 37.7501 19.3724 37.7284 19.4987 37.6831C19.9043 37.5371 29.4919 34.0787 34.9718 30.4582C41.6155 26.0701 44.9144 22.7305 45.9989 21.6333C47.021 20.5986 48.9033 17.576 47.4969 16.2279ZM44.3859 20.0896C43.3419 21.1458 40.1651 24.3609 33.717 28.6203C29.2644 31.5619 21.6581 34.51 19.3856 35.3597L14.7078 30.8851L14.7331 30.858L18.4671 31.5391C18.6758 31.5737 18.8868 31.5553 19.0825 31.4819C19.622 31.2743 24.4043 29.4061 26.2735 27.7835C26.5613 27.5327 26.6998 27.1554 26.6404 26.7824C26.5811 26.4085 26.3317 26.0905 25.98 25.9392L17.9077 22.4613L18.9658 21.3901L32.2423 22.3489C32.5214 22.3717 32.8028 22.2841 33.0236 22.1122C34.5961 20.8851 35.8345 20.002 36.7037 19.4874C39.4047 17.8896 41.7508 17.5058 43.2431 17.4658C44.5144 17.4248 45.366 17.6334 45.732 17.7458C45.6123 18.2797 45.0947 19.3727 44.3859 20.0896V20.0896Z" fill="#567DD0"/>
<path d="M16.5 44.5H43.5V46.75H16.5V44.5Z" fill="#FF6768"/>
</g>
<defs>
<clipPath id="clip0">
<rect width="36" height="36" fill="white" transform="translate(12 13)"/>
</clipPath>
</defs>
</svg>
