<svg width="16" height="16" viewBox="0 0 16 16" fill="none" xmlns="http://www.w3.org/2000/svg">
<path d="M9.2375 5.11562C9.07812 5.27187 9.07812 5.53125 9.23438 5.69062L11.1344 7.59375H3.90313C3.68125 7.59375 3.5 7.775 3.5 8C3.5 8.225 3.68125 8.40625 3.90313 8.40625H11.1313L9.23125 10.3094C9.075 10.4687 9.07812 10.725 9.23438 10.8844C9.39375 11.0406 9.64687 11.0406 9.80625 10.8812L12.3813 8.2875C12.4156 8.25 12.4437 8.20937 12.4656 8.15937C12.4875 8.10937 12.4969 8.05625 12.4969 8.00312C12.4969 7.89687 12.4563 7.79687 12.3813 7.71875L9.80625 5.125C9.65312 4.9625 9.39688 4.95937 9.2375 5.11562Z" fill="#FFF"/>
</svg>
