<svg width="139" height="134" viewBox="0 0 139 134" fill="none" xmlns="http://www.w3.org/2000/svg">
<path d="M26.2852 96.3754H111.773V37.3813H26.2852V96.3754ZM34.3745 88.5381V82.1417L55.9354 65.6967L79.742 85.3552L84.9895 79.3905L78.7266 74.2197L89.8999 65.6967L103.683 77.0791V88.5381H34.3745ZM103.683 45.2186V66.7814L90.1032 55.5674L72.4479 69.0347L56.1397 55.5674L34.3755 72.1675V45.2186H103.683Z" fill="#406BD4" fill-opacity="0.53"/>
<path d="M77.2856 54.754C77.2856 56.9184 75.4739 58.6726 73.2409 58.6726C71.0069 58.6726 69.1963 56.9184 69.1963 54.754C69.1963 52.5906 71.0069 50.8353 73.2409 50.8353C75.4739 50.8353 77.2856 52.5906 77.2856 54.754Z" fill="#406BD4" fill-opacity="0.53"/>
<path d="M138.057 26.5162V0H110.689V9.33945H27.3688V0H0V26.5162H9.63975V107.24H0V133.757H27.3688V124.417H110.689V133.757H138.057V107.24H128.418V26.5162H138.057ZM118.778 7.8373H129.968V18.6789H118.778V7.8373ZM8.0893 7.8373H19.2795V18.6789H8.0893V7.8373ZM19.2795 125.919H8.0893V115.078H19.2795V125.919ZM129.968 125.919H118.778V115.078H129.968V125.919ZM120.328 107.24H110.689V116.58H27.3688V107.24H17.7291V26.5162H27.3688V17.1768H110.689V26.5162H120.328V107.24Z" fill="#406BD4" fill-opacity="0.53"/>
</svg>
