<svg width="26" height="26" viewBox="0 0 26 26" fill="none" xmlns="http://www.w3.org/2000/svg">
<g clip-path="url(#clip0)">
<path d="M23.9138 17.066C22.3219 17.066 20.759 16.8171 19.2778 16.3276C18.5521 16.0801 17.6599 16.3071 17.2169 16.7621L14.2935 18.969C10.9031 17.1592 8.81475 15.0715 7.02968 11.7066L9.17164 8.8593C9.72813 8.30355 9.92773 7.49172 9.68859 6.73001C9.19703 5.2411 8.94732 3.67886 8.94732 2.08636C8.94739 0.935932 8.01145 0 6.86109 0H2.0863C0.935932 0 0 0.935932 0 2.0863C0 15.2725 10.7276 26 23.9138 26C25.0641 26 26.0001 25.0641 26.0001 23.9137V19.1523C26 18.002 25.0641 17.066 23.9138 17.066Z" fill="#567DD0"/>
</g>
<defs>
<clipPath id="clip0">
<rect width="26" height="26" fill="white"/>
</clipPath>
</defs>
</svg>
