<svg width="26" height="22" viewBox="0 0 26 22" fill="none" xmlns="http://www.w3.org/2000/svg">
<path d="M17.2347 11.1006L26 17.8818V4.03296L17.2347 11.1006Z" fill="#567DD0"/>
<path d="M0 4.03296V17.8818L8.76525 11.1006L0 4.03296Z" fill="#567DD0"/>
<path d="M24.3751 0H1.62508C0.814203 0 0.170703 0.739773 0.0488281 1.69233L13.0001 12.1347L25.9513 1.69233C25.8295 0.739773 25.186 0 24.3751 0Z" fill="#567DD0"/>
<path d="M15.7463 12.3018L13.4469 14.1552C13.3104 14.2646 13.156 14.3183 13 14.3183C12.844 14.3183 12.6896 14.2646 12.5531 14.1552L10.2538 12.2998L0.052002 20.1967C0.177127 21.1413 0.817377 21.8751 1.625 21.8751H24.375C25.1826 21.8751 25.8229 21.1413 25.948 20.1967L15.7463 12.3018Z" fill="#567DD0"/>
</svg>
