<svg width="26" height="26" viewBox="0 0 26 26" fill="none" xmlns="http://www.w3.org/2000/svg">
<g clip-path="url(#clip0)">
<path d="M2.99272 0C1.33587 0 0 1.34315 0 3V23C0 24.6569 1.34315 26 3 26H23C24.6569 26 26 24.6569 26 23V3C26 1.34315 24.657 0 23.0001 0C15.9576 0 7.4219 0 2.99272 0ZM15.1568 14.0938C14.7122 17.0145 12.5347 18.6889 9.7155 18.6889C6.54738 18.6889 3.97887 16.1204 3.97887 12.9522C3.97887 9.78493 6.54738 7.21642 9.7155 7.21642C11.248 7.21642 12.5908 7.76332 13.5682 8.71265L11.9219 10.359C11.3643 9.79725 10.6013 9.49785 9.7155 9.49785C7.8506 9.49785 6.33869 11.0881 6.33869 12.9522C6.33869 14.8179 7.8506 16.362 9.7155 16.362C11.2785 16.362 12.4622 15.6065 12.8036 14.0938H9.7155V11.7901H15.1428C15.208 12.1612 15.241 12.5497 15.241 12.9522C15.2409 13.3514 15.212 13.7317 15.1568 14.0938ZM22.0457 13.3795H20.0356V15.3887H18.6079V13.3795H16.5978V11.9509H18.6079V9.94079H20.0356V11.9509H22.0457V13.3795Z" fill="#567DD0"/>
</g>
<defs>
<clipPath id="clip0">
<rect width="26" height="26" fill="white"/>
</clipPath>
</defs>
</svg>
