<svg width="26" height="26" viewBox="0 0 26 26" fill="none" xmlns="http://www.w3.org/2000/svg">
<g >
<path d="M20.5578 4.81104C20.2098 4.81104 19.9266 5.09424 19.9266 5.44225C19.9266 5.79025 20.2098 6.07346 20.5578 6.07346C20.9059 6.07346 21.1891 5.7903 21.1891 5.44225C21.1891 5.09419 20.9059 4.81104 20.5578 4.81104Z" fill="#567DD0"/>
<path d="M13.0001 7.40417C9.91449 7.40417 7.40417 9.91449 7.40417 13.0001C7.40417 16.0856 9.91449 18.596 13.0001 18.596C16.0857 18.596 18.596 16.0857 18.596 13.0001C18.596 9.91455 16.0857 7.40417 13.0001 7.40417Z" fill="#567DD0"/>
<path d="M22.5 0H3.50005C1.5 0 0 1.5 0 3.50004V22.5C0 24.5 1.5 26 3.50005 26H22.5C24.5 26 26 24.5 26 22.5V3.50004C26 1.5 24.5 0 22.5 0ZM13 20.1313C9.06775 20.1313 5.86874 16.9322 5.86874 13C5.86874 9.06775 9.06781 5.86879 13 5.86879C16.9322 5.86879 20.1313 9.0678 20.1313 13C20.1313 16.9322 16.9322 20.1313 13 20.1313ZM20.5578 7.60886C19.3631 7.60886 18.3912 6.63691 18.3912 5.44223C18.3912 4.24755 19.3631 3.27554 20.5578 3.27554C21.7525 3.27554 22.7245 4.2475 22.7245 5.44218C22.7245 6.63686 21.7525 7.60886 20.5578 7.60886Z" fill="#567DD0"/>
</g>
</svg>
