<svg width="26" height="26" viewBox="0 0 26 26" fill="none" xmlns="http://www.w3.org/2000/svg">
<g  clip-path="url(#clip0)">
<path d="M24.5697 1.43021C23.6165 0.476795 22.4681 0 21.1253 0H4.87521C3.53246 0 2.38404 0.476795 1.43045 1.43021C0.47704 2.3838 0.000244141 3.53215 0.000244141 4.87496V21.1249C0.000244141 22.4676 0.47704 23.616 1.43045 24.5696C2.38404 25.5232 3.53246 26 4.87521 26H21.1252C22.4679 26 23.6163 25.5232 24.5695 24.5696C25.5231 23.616 25.9999 22.4676 25.9999 21.1249V4.87496C25.9998 3.53215 25.523 2.38362 24.5697 1.43021ZM7.92203 21.768H4.01186V10.0206H7.92203V21.768ZM7.56678 7.84571C7.1606 8.23506 6.62451 8.42976 5.95865 8.42976H5.94157C5.29841 8.42976 4.77668 8.23506 4.37595 7.84571C3.97516 7.45637 3.77489 6.974 3.77489 6.39849C3.77489 5.81172 3.98097 5.32638 4.39273 4.94261C4.80478 4.55896 5.3379 4.36704 5.99232 4.36704C6.64681 4.36704 7.17156 4.55896 7.5666 4.94261C7.96152 5.32638 8.1647 5.81172 8.17591 6.39849C8.17585 6.97376 7.97296 7.45613 7.56678 7.84571ZM21.9884 21.768H18.0783V15.4882C18.0783 13.7168 17.424 12.8308 16.1149 12.8308C15.6184 12.8308 15.2007 12.969 14.8622 13.2455C14.5234 13.5218 14.2696 13.8576 14.1006 14.2529C14.0214 14.4557 13.9821 14.7716 13.9821 15.2003V21.768H10.0719C10.1057 14.6813 10.1057 10.7654 10.0719 10.0205H13.9821V11.679C14.8042 10.3936 15.9717 9.74957 17.486 9.74957C18.8402 9.74957 19.9293 10.1954 20.7531 11.0868C21.5769 11.9783 21.9887 13.2931 21.9887 15.0305V21.768H21.9884Z" fill="#567DD0"/>
</g>
<defs>
<clipPath id="clip0">
<rect width="26" height="26" fill="white"/>
</clipPath>
</defs>
</svg>
