<svg width="20" height="26" viewBox="0 0 20 26" fill="none" xmlns="http://www.w3.org/2000/svg">
<path d="M9.57172 0C4.29413 0 0 4.29413 0 9.57225C0 10.949 0.281787 12.2635 0.837113 13.4795C3.23031 18.7164 7.81873 24.2454 9.16833 25.8151C9.26945 25.9324 9.41686 26 9.57199 26C9.72712 26 9.87453 25.9324 9.97564 25.8151C11.3247 24.2457 15.9131 18.7169 18.3071 13.4795C18.8627 12.2635 19.1442 10.949 19.1442 9.57225C19.1437 4.29413 14.8496 0 9.57172 0ZM9.57172 14.5441C6.83022 14.5441 4.5996 12.3135 4.5996 9.57199C4.5996 6.83022 6.83022 4.5996 9.57172 4.5996C12.3132 4.5996 14.5438 6.83022 14.5438 9.57199C14.5441 12.3135 12.3135 14.5441 9.57172 14.5441Z" fill="#567DD0"/>
</svg>
