<svg width="26" height="26" viewBox="0 0 26 26" fill="none" xmlns="http://www.w3.org/2000/svg">
<path d="M25.2525 15.7592C25.441 14.9126 25.5385 14.0351 25.5385 13.1349C25.5385 6.383 19.9875 0.908375 13.1381 0.908375C12.4166 0.908375 11.7081 0.970125 11.0175 1.08713C9.90925 0.39975 8.59788 0 7.19225 0C3.21913 0 0 3.17362 0 7.0915C0 8.39962 0.36075 9.62325 0.988 10.6779C0.823875 11.4709 0.736125 12.2931 0.736125 13.1349C0.736125 19.8884 6.28875 25.363 13.1365 25.363C13.9132 25.363 14.6721 25.2915 15.4083 25.1583C16.4223 25.6945 17.5792 26 18.8094 26C22.7809 26 26 22.8248 26 18.9101C26 17.7775 25.7302 16.7099 25.2525 15.7592ZM19.4984 18.9784C18.9247 19.7795 18.0781 20.4133 16.978 20.8618C15.8909 21.3086 14.5893 21.5361 13.104 21.5361C11.323 21.5361 9.82962 21.2274 8.66287 20.6164C7.82925 20.1728 7.1435 19.5731 6.62187 18.8289C6.09375 18.0814 5.82887 17.3387 5.82887 16.6205C5.82887 16.1736 6.00275 15.7853 6.34562 15.4684C6.68525 15.1515 7.12075 14.9939 7.64075 14.9939C8.0665 14.9939 8.43375 15.119 8.73275 15.3676C9.01713 15.6065 9.2625 15.9607 9.45913 16.4141C9.6785 16.9114 9.91737 17.3306 10.1692 17.6573C10.4146 17.9774 10.764 18.2439 11.2109 18.4535C11.661 18.6615 12.2671 18.7704 13.0114 18.7704C14.0367 18.7704 14.8785 18.5543 15.509 18.1285C16.1281 17.7141 16.4271 17.2136 16.4271 16.6026C16.4271 16.1216 16.2695 15.7414 15.9494 15.444C15.6114 15.132 15.1661 14.8899 14.6266 14.7225C14.0628 14.5503 13.2974 14.3618 12.3516 14.1668C11.063 13.8954 9.96937 13.5736 9.10162 13.208C8.21275 12.8343 7.4945 12.3175 6.97125 11.6708C6.43825 11.0126 6.1685 10.1887 6.1685 9.22025C6.1685 8.29725 6.45125 7.46525 7.01025 6.747C7.56438 6.03362 8.37362 5.47625 9.4185 5.09763C10.4471 4.72225 11.6707 4.53213 13.0569 4.53213C14.1635 4.53213 15.1369 4.65887 15.951 4.90912C16.7684 5.15937 17.4574 5.49738 17.9985 5.915C18.5445 6.3375 18.9507 6.78437 19.2042 7.25237C19.461 7.72362 19.5926 8.19325 19.5926 8.64663C19.5926 9.08375 19.422 9.48187 19.084 9.82637C18.7428 10.1757 18.3138 10.3512 17.81 10.3512C17.3518 10.3512 16.991 10.2391 16.7424 10.023C16.51 9.81988 16.2679 9.503 16.0014 9.05125C15.6926 8.47275 15.3172 8.01613 14.8882 7.69275C14.4706 7.37913 13.7751 7.22313 12.8164 7.22313C11.9291 7.22313 11.2044 7.39863 10.6681 7.74638C10.1514 8.0795 9.8995 8.463 9.8995 8.918C9.8995 9.19587 9.98075 9.42825 10.1481 9.62813C10.3236 9.84263 10.5722 10.0262 10.8875 10.1822C11.2125 10.3431 11.5489 10.4731 11.8853 10.5641C12.2298 10.6584 12.8066 10.7997 13.6012 10.9801C14.6055 11.1914 15.5269 11.4302 16.3426 11.6886C17.1698 11.947 17.8815 12.2671 18.4665 12.6425C19.0596 13.0244 19.5292 13.5119 19.864 14.0969C20.1987 14.6868 20.3678 15.4099 20.3678 16.2516C20.3661 17.2575 20.0736 18.1756 19.4984 18.9784Z" fill="#567DD0"/>
</svg>
