<svg width="28" height="28" viewBox="0 0 28 28" fill="none" xmlns="http://www.w3.org/2000/svg">
<g  clip-path="url(#clip0)">
<path d="M27.4514 2.29404C27.0009 1.88131 26.3607 1.74377 25.7804 1.93502L1.16072 10.0507C0.489756 10.2719 0.0347556 10.8708 0.00156029 11.5765C-0.0315804 12.2821 0.365178 12.9212 1.01235 13.2044L5.95638 15.3675L20.5126 7.28888C20.8681 7.09157 21.3143 7.18377 21.5626 7.5055C21.8109 7.82734 21.7868 8.28229 21.5058 8.57607L12.4312 18.0646L10.57 24.7888L15.037 21.444L20.3192 25.7664C20.6269 26.0183 21.0029 26.1497 21.3863 26.1497C21.5688 26.1496 21.7531 26.1199 21.9324 26.0591C22.4884 25.8705 22.9005 25.4168 23.0349 24.8454L27.9548 3.92718C28.0947 3.33256 27.9018 2.70677 27.4514 2.29404Z" fill="#567DD0"/>
<path d="M7.24475 16.5334L8.95434 24.4627L10.9019 17.4265C10.9381 17.2956 11.0062 17.1757 11.1 17.0776L16.5704 11.3578L7.24475 16.5334Z" fill="#567DD0"/>
</g>
<defs>
<clipPath id="clip0">
<rect width="28" height="28" fill="white"/>
</clipPath>
</defs>
</svg>
