<svg width="28" height="28" viewBox="0 0 28 28" fill="none" xmlns="http://www.w3.org/2000/svg">
<g  clip-path="url(#clip0)">
<path d="M27.86 22.2651L26.8962 20.0002C26.0558 17.9921 24.9461 16.2554 23.5904 14.8245C25.3718 13.3989 27.1594 10.9151 27.1594 6.69043V5.05064C27.1594 4.08765 26.376 3.3042 25.413 3.3042H22.1334C21.1704 3.3042 20.3869 4.08765 20.3869 5.05064V6.69043C20.3869 7.90941 20.1608 8.70155 19.6537 9.25882C19.2991 9.64857 18.7735 9.95728 18.0849 10.1812V4.13096C18.0849 3.67438 17.7147 3.3042 17.2581 3.3042H11.1173C9.88788 3.3042 8.88771 4.30437 8.88771 5.5338C8.88771 6.57078 9.59224 7.46273 10.6011 7.70286L10.8697 7.76679C11.1304 7.8288 11.3124 8.05925 11.3124 8.32717V16.8216C10.5773 16.3181 9.89089 15.6508 9.2878 14.8481C7.66572 12.689 6.77241 9.79191 6.77241 6.69032V5.05064C6.77241 4.08765 5.98896 3.3042 5.02597 3.3042H1.74638C0.783394 3.3042 0 4.08765 0 5.05064V6.69043C0 11.3414 1.42816 15.7485 4.02159 19.0997C6.81397 22.7081 10.6058 24.6953 14.6987 24.6953H16.3385C17.3014 24.6953 18.0849 23.9119 18.0849 22.9489V18.926C19.1446 19.8385 20.0049 21.0757 20.6492 22.616L21.0705 23.6229C21.343 24.2743 21.9754 24.6953 22.6816 24.6953H26.2529C26.8408 24.6953 27.3854 24.4025 27.7098 23.9121C28.0341 23.4217 28.0902 22.806 27.86 22.2651Z" fill="#567DD0"/>
</g>
<defs>
<clipPath id="clip0">
<rect width="28" height="28" fill="white"/>
</clipPath>
</defs>
</svg>
