<svg width="26" height="19" viewBox="0 0 26 19" fill="none" xmlns="http://www.w3.org/2000/svg">
<path d="M0.227041 3.6596C0.346391 1.82216 1.82367 0.382169 3.66272 0.291057C6.32579 0.159122 10.1321 0 13 0C15.8679 0 19.6742 0.159122 22.3373 0.291057C24.1763 0.382169 25.6536 1.82217 25.773 3.6596C25.8873 5.42 26 7.58611 26 9.28571C26 10.9853 25.8873 13.1514 25.773 14.9118C25.6536 16.7493 24.1763 18.1893 22.3373 18.2804C19.6742 18.4123 15.8679 18.5714 13 18.5714C10.1321 18.5714 6.32579 18.4123 3.66272 18.2804C1.82367 18.1893 0.346391 16.7493 0.227041 14.9118C0.112695 13.1514 0 10.9853 0 9.28571C0 7.58611 0.112695 5.42 0.227041 3.6596Z" fill="#567DD0"/>
<path d="M10.2139 5.57153V13.0001L17.6424 9.28582L10.2139 5.57153Z" fill="#0C389A"/>
</svg>
