<svg width="18" height="20" viewBox="0 0 18 20" fill="none" xmlns="http://www.w3.org/2000/svg">
<path d="M5.39866 14.2204H4.7801C2.67309 14.2204 0.958862 12.5062 0.958862 10.3992C0.958862 8.29212 2.67305 6.57794 4.7801 6.57794H5.39866V14.2204ZM4.16154 7.88994C3.03441 8.16788 2.19598 9.18751 2.19598 10.3992C2.19598 11.6109 3.03441 12.6306 4.16154 12.9085V7.88994Z" fill="#567DD0"/>
<path d="M13.2199 14.2204H12.6013V6.57798H13.2199C15.3269 6.57798 17.0411 8.29217 17.0411 10.3992C17.0411 12.5063 15.3269 14.2204 13.2199 14.2204ZM13.8384 7.88994V12.9085C14.9656 12.6306 15.804 11.6109 15.804 10.3992C15.804 9.18751 14.9656 8.16784 13.8384 7.88994Z" fill="#567DD0"/>
<path d="M11.2247 15.9988H6.77539V17.236H11.2247V15.9988Z" fill="#FF6768"/>
<path d="M11.2247 20H4.05165C2.34628 20 0.958862 18.6126 0.958862 16.9072V8.04115C0.958862 3.60726 4.56612 0 9.00002 0C13.4339 0 17.0412 3.60726 17.0412 8.04115V10.1026H15.8041V8.04115C15.8041 4.2894 12.7518 1.23711 9.00002 1.23711C5.24826 1.23711 2.19598 4.2894 2.19598 8.04115V16.9072C2.19598 17.9304 3.02843 18.7629 4.05165 18.7629H11.2247V20Z" fill="#567DD0"/>
</svg>
