<svg width="20" height="20" viewBox="0 0 20 20" fill="none" xmlns="http://www.w3.org/2000/svg">
<path d="M7.94512 2.72158C5.06485 2.72158 2.72156 5.06487 2.72156 7.94515C2.72156 10.8254 5.06485 13.1687 7.94512 13.1687C10.8254 13.1687 13.1687 10.8254 13.1687 7.94515C13.1687 5.06487 10.8254 2.72158 7.94512 2.72158ZM7.94512 12.0079C5.70491 12.0079 3.88235 10.1854 3.88235 7.94515C3.88235 5.70494 5.70491 3.88238 7.94512 3.88238C10.1853 3.88238 12.0079 5.70494 12.0079 7.94515C12.0079 10.1854 10.1853 12.0079 7.94512 12.0079Z" fill="#4B74CD"/>
<path d="M9.9972 5.89314C9.44981 5.34575 8.72107 5.04425 7.9452 5.04425C7.16932 5.04425 6.44062 5.34575 5.89319 5.89314L6.71398 6.71393C7.39289 6.03506 8.4975 6.03506 9.17641 6.71393C9.85528 7.3928 9.85528 8.49745 9.17641 9.17636L9.9972 9.99716C10.5446 9.44977 10.8461 8.72102 10.8461 7.94515C10.8461 7.16927 10.5446 6.44057 9.9972 5.89314Z" fill="#FF6768"/>
<path d="M14.3664 11.904C15.1032 10.7146 15.4903 9.35601 15.4903 7.94515C15.4903 3.78475 12.1056 0.400002 7.94517 0.400002C3.78478 0.400002 0.400024 3.78475 0.400024 7.94515C0.400024 12.1055 3.78478 15.4903 7.94517 15.4903C9.35604 15.4903 10.7147 15.1032 11.904 14.3664L17.1376 19.6L19.6 17.1376L14.3664 11.904ZM12.0416 12.8624L11.6417 13.1475C10.5568 13.9208 9.27857 14.3295 7.94517 14.3295C4.42484 14.3295 1.56082 11.4655 1.56082 7.94515C1.56082 4.42481 4.42484 1.56079 7.94517 1.56079C11.4655 1.56079 14.3295 4.42481 14.3295 7.94515C14.3295 9.27855 13.9208 10.5568 13.1475 11.6417L12.8624 12.0416L17.9584 17.1376L17.1376 17.9584L12.0416 12.8624Z" fill="#4B74CD"/>
</svg>
