<svg width="20" height="20" viewBox="0 0 20 20" fill="none" xmlns="http://www.w3.org/2000/svg">
<path d="M16.6667 3.3331V2.49985C16.6667 2.0416 16.2915 1.6666 15.8333 1.6666H12.5C12.0417 1.6666 11.6667 2.04184 11.6667 2.49985V3.3331H0V4.99985H11.6667V5.8331C11.6667 6.29135 12.0417 6.66635 12.5 6.66635H15.8333C16.2915 6.66635 16.6667 6.29135 16.6667 5.8331V4.99985H20V3.3331H16.6667ZM15 4.99985H13.3333V3.3331H15V4.99985Z" fill="#567DD0"/>
<path d="M8.33325 9.16636V8.33335C8.33325 7.87485 7.95825 7.49985 7.5 7.49985H4.16675C3.7085 7.49985 3.33325 7.87485 3.33325 8.3331V9.16636H0V10.8331H3.33325V11.6661C3.33325 12.1246 3.7085 12.4996 4.16675 12.4996H7.5C7.95825 12.4996 8.33325 12.1246 8.33325 11.6661V10.8331H20V9.16636H8.33325ZM6.66675 10.8334H5V9.16665H6.66675V10.8334Z" fill="#567DD0"/>
<path d="M15 14.9998V14.1664C15 13.7083 14.6248 13.3333 14.1667 13.3333H10.8333C10.3752 13.3333 10 13.7083 10 14.1664V14.9998H0V16.6664H10V17.4999C10 17.9579 10.3752 18.3333 10.8333 18.3333H14.1667C14.6248 18.3333 15 17.9579 15 17.4999V16.6664H20V14.9998H15ZM13.3333 16.6664H11.6667V14.9998H13.3333V16.6664Z" fill="#567DD0"/>
</svg>
