<svg width="10" height="12" viewBox="0 0 10 12" fill="none" xmlns="http://www.w3.org/2000/svg">
<path d="M5.00234 0H4.99766C2.46594 0 0.40625 2.05969 0.40625 4.59141C0.40625 5.57508 0.730437 6.55083 1.31905 7.33891L4.80034 12H5.19964L8.68095 7.33894C9.26956 6.55083 9.59375 5.57508 9.59375 4.59141C9.59375 2.05969 7.53406 0 5.00234 0ZM5 5.88281C4.22459 5.88281 3.59375 5.25197 3.59375 4.47656C3.59375 3.70116 4.22459 3.07031 5 3.07031C5.77541 3.07031 6.40625 3.70116 6.40625 4.47656C6.40625 5.25197 5.77541 5.88281 5 5.88281Z" fill="#567DD0"/>
</svg>
