<svg width="26" height="26" viewBox="0 0 26 26" fill="none" xmlns="http://www.w3.org/2000/svg">
<g opacity="0.6">
<path d="M21.4501 0H4.55C1.95 0 0 1.95 0 4.55V21.45C0 24.05 1.95 26 4.55 26H21.45C24.05 26 26 24.05 26 21.3244V4.55C26 1.95 24.05 0 21.4501 0ZM20.41 9.49C20.28 15.47 16.51 19.63 10.79 19.89C8.45 20.02 6.76 19.24 5.2 18.33C6.89 18.5901 9.1 17.9401 10.27 16.9C8.58 16.77 7.54 15.86 7.02 14.43C7.54 14.56 8.06 14.43 8.45 14.43C6.89 13.91 5.85 13 5.72 10.92C6.11 11.18 6.63 11.31 7.15 11.31C5.98 10.66 5.2 8.19 6.11 6.63C7.8 8.45 9.88 10.01 13.26 10.27C12.35 6.63 17.2901 4.68 19.2401 7.15C20.1501 7.02 20.8001 6.63 21.4501 6.37C21.1901 7.28 20.6701 7.8 20.0201 8.32C20.6701 8.19 21.3201 8.06 21.84 7.8C21.71 8.45 21.06 8.97 20.41 9.49Z" fill="#567DD0"/>
</g>
</svg>
