<svg width="28" height="28" viewBox="0 0 28 28" fill="none" xmlns="http://www.w3.org/2000/svg">
<g opacity="0.6" clip-path="url(#clip0)">
<path d="M27.86 22.2653L26.8962 20.0004C26.0558 17.9923 24.9461 16.2556 23.5904 14.8247C25.3718 13.3991 27.1594 10.9153 27.1594 6.69068V5.05088C27.1594 4.08789 26.376 3.30444 25.413 3.30444H22.1334C21.1704 3.30444 20.3869 4.08789 20.3869 5.05088V6.69068C20.3869 7.90966 20.1608 8.7018 19.6537 9.25906C19.2991 9.64882 18.7735 9.95753 18.0849 10.1815V4.1312C18.0849 3.67462 17.7147 3.30444 17.2581 3.30444H11.1173C9.88788 3.30444 8.88771 4.30462 8.88771 5.53404C8.88771 6.57102 9.59224 7.46297 10.6011 7.7031L10.8697 7.76703C11.1304 7.82905 11.3124 8.0595 11.3124 8.32741V16.8219C10.5773 16.3184 9.89089 15.651 9.2878 14.8483C7.66572 12.6893 6.77241 9.79215 6.77241 6.69057V5.05088C6.77241 4.08789 5.98896 3.30444 5.02597 3.30444H1.74638C0.783394 3.30444 0 4.08789 0 5.05088V6.69068C0 11.3417 1.42816 15.7487 4.02159 19.1C6.81397 22.7083 10.6058 24.6956 14.6987 24.6956H16.3385C17.3014 24.6956 18.0849 23.9121 18.0849 22.9491V18.9263C19.1446 19.8387 20.0049 21.0759 20.6492 22.6162L21.0705 23.6232C21.343 24.2746 21.9754 24.6955 22.6816 24.6955H26.2529C26.8408 24.6955 27.3854 24.4028 27.7098 23.9123C28.0341 23.422 28.0902 22.8062 27.86 22.2653Z" fill="#567DD0"/>
</g>
<defs>
<clipPath id="clip0">
<rect width="28" height="28" fill="white"/>
</clipPath>
</defs>
</svg>
