<svg width="16" height="16" viewBox="0 0 16 16" fill="none" xmlns="http://www.w3.org/2000/svg">
<path d="M10.4765 8.00008L15.9021 2.5743C16.0324 2.44405 16.0324 2.23292 15.9021 2.10267L13.8977 0.0977288C13.8352 0.035189 13.7501 0 13.6619 0C13.5735 0 13.4886 0.035189 13.4261 0.0977288L8.00012 5.52368L2.57417 0.0977288C2.44909 -0.0273507 2.22762 -0.0273507 2.10254 0.0977288L0.0979312 2.10267C-0.0323182 2.23292 -0.0323182 2.44405 0.0979312 2.5743L5.52371 8.00008L0.0979312 13.4259C-0.0323182 13.5561 -0.0323182 13.7672 0.0979312 13.8975L2.10254 15.9023C2.16508 15.9648 2.24997 16 2.33835 16C2.42674 16 2.51163 15.9648 2.57417 15.9023L8.00012 10.4763L13.4261 15.9023C13.4886 15.9648 13.5735 16 13.6619 16C13.7501 16 13.8352 15.9648 13.8977 15.9023L15.9023 13.8975C16.0326 13.7672 16.0326 13.5559 15.9023 13.4259L10.4765 8.00008Z" fill="#D9DEE9"/>
</svg>
