<svg width="12" height="12" viewBox="0 0 12 12" fill="none" xmlns="http://www.w3.org/2000/svg">
<path d="M11.317 1.96879C11.1476 1.79915 10.9465 1.71432 10.7144 1.71432H9.85737V1.07144C9.85737 0.776851 9.75237 0.524601 9.54257 0.314779C9.33265 0.104958 9.08054 0 8.78582 0H8.35736C8.06265 0 7.81045 0.104958 7.60063 0.314803C7.39073 0.524601 7.28582 0.776874 7.28582 1.07146V1.71434H4.71453V1.07146C4.71453 0.776874 4.60957 0.524624 4.39973 0.314803C4.18993 0.104958 3.9377 0 3.643 0H3.21447C2.91984 0 2.66758 0.104958 2.45774 0.314803C2.24794 0.524601 2.14296 0.776874 2.14296 1.07146V1.71434H1.28589C1.0537 1.71434 0.852834 1.79917 0.68319 1.96882C0.513545 2.13844 0.428711 2.33939 0.428711 2.57152V11.1429C0.428711 11.3749 0.513545 11.5758 0.68319 11.7455C0.852811 11.9151 1.05367 12 1.28589 12H10.7143C10.9464 12 11.1475 11.9152 11.3169 11.7455C11.4866 11.5759 11.5714 11.3749 11.5714 11.1429V2.5715C11.5714 2.3393 11.4866 2.13844 11.317 1.96879ZM8.14308 1.07153C8.14308 1.00898 8.16299 0.957589 8.20312 0.917506C8.24325 0.877376 8.29462 0.857275 8.35721 0.857275H8.78568C8.8483 0.857275 8.8995 0.877305 8.93977 0.917506C8.97993 0.957659 8.99998 1.00905 8.99998 1.07153V3.00003C8.99998 3.06256 8.97993 3.11385 8.93977 3.15405C8.89948 3.19414 8.8483 3.21428 8.78568 3.21428H8.35721C8.29462 3.21428 8.24325 3.19423 8.20312 3.15405C8.16299 3.11383 8.14308 3.06256 8.14308 3.00003V1.07153ZM3.00021 1.07153C3.00021 1.00898 3.02027 0.957589 3.06044 0.917506C3.10064 0.877376 3.15194 0.857275 3.21447 0.857275H3.643C3.70555 0.857275 3.75694 0.877305 3.79703 0.917506C3.83716 0.957659 3.8573 1.00905 3.8573 1.07153V3.00003C3.8573 3.06256 3.83725 3.11392 3.79703 3.15405C3.75685 3.19414 3.70555 3.21428 3.643 3.21428H3.21447C3.15194 3.21428 3.10057 3.19423 3.06044 3.15405C3.02036 3.11383 3.00021 3.06256 3.00021 3.00003V1.07153ZM10.7143 11.1428H1.28589V4.28574H10.7143V11.1428Z" fill="#A8B5CC"/>
</svg>
